<!DOCTYPE svg PUBLIC "-//W3C//DTD SVG 1.1//EN" "http://www.w3.org/Graphics/SVG/1.1/DTD/svg11.dtd">
<svg xmlns="http://www.w3.org/2000/svg" version="1.1" width="39.464mm" height="34.729mm" viewBox="-134.464 82.844 39.464 34.729">
            <title>Picture generated by PcbDraw </title>
            <desc>Picture generated by PcbDraw</desc>
        <defs><clipPath id="cut-off"><path d=" M 125.906 93.65 L 125.906 100.0 L 129.46 100.0 L 129.46 112.573 L 100.0 112.573 L 100.0 100.0 L 103.556 100.0 L 103.556 93.65 L 100.0 93.65 L 100.0 87.844 L 129.464 87.844 L 129.464 93.65 L 125.906 93.65 " style="fill-rule: evenodd;"/></clipPath><mask id="pads-mask"><g style="fill:#ffffff; fill-opacity:0.0;  stroke:#ffffff; stroke-width:0.00000; stroke-opacity:1;  stroke-linecap:round; stroke-linejoin:round;">
<g style="fill:#ffffff; fill-opacity:1.00000;  stroke:#ffffff; stroke-width:0.00000; stroke-opacity:1;  stroke-linecap:round; stroke-linejoin:round;">
<path style="fill:#ffffff; fill-opacity:1.00000;  stroke:#ffffff; stroke-width:0.00000; stroke-opacity:1;  stroke-linecap:round; stroke-linejoin:round;fill-rule:evenodd;" d="M 121.65000,91.40000 123.35000,91.40000 123.35000,93.10000 121.65000,93.10000 Z"/> 
<circle cx="119.96000" cy="92.25000" r="0.85000"/> 
<circle cx="117.42000" cy="92.25000" r="0.85000"/> 
<circle cx="114.88000" cy="92.25000" r="0.85000"/> 
<circle cx="112.34000" cy="92.25000" r="0.85000"/> 
<circle cx="109.80000" cy="92.25000" r="0.85000"/> 
<circle cx="107.26000" cy="92.25000" r="0.85000"/> 
</g>
<g style="fill:#ffffff; fill-opacity:1.00000;  stroke:#ffffff; stroke-width:0.00000; stroke-opacity:1;  stroke-linecap:round; stroke-linejoin:round;">
<path style="fill:#ffffff; fill-opacity:1.00000;  stroke:#ffffff; stroke-width:0.00000; stroke-opacity:1;  stroke-linecap:round; stroke-linejoin:round;fill-rule:evenodd;" d="M 116.55000,108.37500 117.55000,108.37500 117.55000,109.37500 116.55000,109.37500 Z"/> 
<circle cx="117.05000" cy="110.14500" r="0.50000"/> 
<circle cx="115.78000" cy="108.87500" r="0.50000"/> 
<circle cx="115.78000" cy="110.14500" r="0.50000"/> 
<circle cx="114.51000" cy="108.87500" r="0.50000"/> 
<circle cx="114.51000" cy="110.14500" r="0.50000"/> 
<circle cx="113.24000" cy="108.87500" r="0.50000"/> 
<circle cx="113.24000" cy="110.14500" r="0.50000"/> 
<circle cx="111.97000" cy="108.87500" r="0.50000"/> 
<circle cx="111.97000" cy="110.14500" r="0.50000"/> 
</g>
<g style="fill:#ffffff; fill-opacity:1.00000;  stroke:#ffffff; stroke-width:0.00000; stroke-opacity:1;  stroke-linecap:round; stroke-linejoin:round;">
<path style="fill:#ffffff; fill-opacity:1.00000;  stroke:#ffffff; stroke-width:0.00000; stroke-opacity:1;  stroke-linecap:round; stroke-linejoin:round;fill-rule:evenodd;" d="M 110.25000,102.50000 111.25000,102.50000 111.25000,103.50000 110.25000,103.50000 Z"/> 
<circle cx="110.75000" cy="104.27000" r="0.50000"/> 
<circle cx="112.02000" cy="103.00000" r="0.50000"/> 
<circle cx="112.02000" cy="104.27000" r="0.50000"/> 
<circle cx="113.29000" cy="103.00000" r="0.50000"/> 
<circle cx="113.29000" cy="104.27000" r="0.50000"/> 
<circle cx="114.56000" cy="103.00000" r="0.50000"/> 
<circle cx="114.56000" cy="104.27000" r="0.50000"/> 
<circle cx="115.83000" cy="103.00000" r="0.50000"/> 
<circle cx="115.83000" cy="104.27000" r="0.50000"/> 
<circle cx="117.10000" cy="103.00000" r="0.50000"/> 
<circle cx="117.10000" cy="104.27000" r="0.50000"/> 
<circle cx="118.37000" cy="103.00000" r="0.50000"/> 
<circle cx="118.37000" cy="104.27000" r="0.50000"/> 
</g>
</g> 
</mask><mask id="pads-mask-silkscreen"><rect x="99.25" y="86.75" width="31.25" height="35.45475" fill="white"/><g style="fill:#000000; fill-opacity:0.0;  stroke:#000000; stroke-width:0.00000; stroke-opacity:1;  stroke-linecap:round; stroke-linejoin:round;">
<g style="fill:#000000; fill-opacity:1.00000;  stroke:#000000; stroke-width:0.00000; stroke-opacity:1;  stroke-linecap:round; stroke-linejoin:round;">
<path style="fill:#000000; fill-opacity:1.00000;  stroke:#000000; stroke-width:0.00000; stroke-opacity:1;  stroke-linecap:round; stroke-linejoin:round;fill-rule:evenodd;" d="M 121.65000,91.40000 123.35000,91.40000 123.35000,93.10000 121.65000,93.10000 Z"/> 
<circle cx="119.96000" cy="92.25000" r="0.85000"/> 
<circle cx="117.42000" cy="92.25000" r="0.85000"/> 
<circle cx="114.88000" cy="92.25000" r="0.85000"/> 
<circle cx="112.34000" cy="92.25000" r="0.85000"/> 
<circle cx="109.80000" cy="92.25000" r="0.85000"/> 
<circle cx="107.26000" cy="92.25000" r="0.85000"/> 
</g>
<g style="fill:#000000; fill-opacity:1.00000;  stroke:#000000; stroke-width:0.00000; stroke-opacity:1;  stroke-linecap:round; stroke-linejoin:round;">
<path style="fill:#000000; fill-opacity:1.00000;  stroke:#000000; stroke-width:0.00000; stroke-opacity:1;  stroke-linecap:round; stroke-linejoin:round;fill-rule:evenodd;" d="M 116.55000,108.37500 117.55000,108.37500 117.55000,109.37500 116.55000,109.37500 Z"/> 
<circle cx="117.05000" cy="110.14500" r="0.50000"/> 
<circle cx="115.78000" cy="108.87500" r="0.50000"/> 
<circle cx="115.78000" cy="110.14500" r="0.50000"/> 
<circle cx="114.51000" cy="108.87500" r="0.50000"/> 
<circle cx="114.51000" cy="110.14500" r="0.50000"/> 
<circle cx="113.24000" cy="108.87500" r="0.50000"/> 
<circle cx="113.24000" cy="110.14500" r="0.50000"/> 
<circle cx="111.97000" cy="108.87500" r="0.50000"/> 
<circle cx="111.97000" cy="110.14500" r="0.50000"/> 
</g>
<g style="fill:#000000; fill-opacity:1.00000;  stroke:#000000; stroke-width:0.00000; stroke-opacity:1;  stroke-linecap:round; stroke-linejoin:round;">
<path style="fill:#000000; fill-opacity:1.00000;  stroke:#000000; stroke-width:0.00000; stroke-opacity:1;  stroke-linecap:round; stroke-linejoin:round;fill-rule:evenodd;" d="M 110.25000,102.50000 111.25000,102.50000 111.25000,103.50000 110.25000,103.50000 Z"/> 
<circle cx="110.75000" cy="104.27000" r="0.50000"/> 
<circle cx="112.02000" cy="103.00000" r="0.50000"/> 
<circle cx="112.02000" cy="104.27000" r="0.50000"/> 
<circle cx="113.29000" cy="103.00000" r="0.50000"/> 
<circle cx="113.29000" cy="104.27000" r="0.50000"/> 
<circle cx="114.56000" cy="103.00000" r="0.50000"/> 
<circle cx="114.56000" cy="104.27000" r="0.50000"/> 
<circle cx="115.83000" cy="103.00000" r="0.50000"/> 
<circle cx="115.83000" cy="104.27000" r="0.50000"/> 
<circle cx="117.10000" cy="103.00000" r="0.50000"/> 
<circle cx="117.10000" cy="104.27000" r="0.50000"/> 
<circle cx="118.37000" cy="103.00000" r="0.50000"/> 
<circle cx="118.37000" cy="104.27000" r="0.50000"/> 
</g>
</g> 
</mask><mask id="hole-mask"><g><rect x="99.25" y="86.75" fill="white" width="31.25" height="35.45475"/><polyline stroke-linecap="round" stroke="black" stroke-width="1.0" points="-0.0 0 0.0 0" transform="translate(122.5 92.25) rotate(-270.0)"/><polyline stroke-linecap="round" stroke="black" stroke-width="1.0" points="-0.0 0 0.0 0" transform="translate(119.96 92.25) rotate(-270.0)"/><polyline stroke-linecap="round" stroke="black" stroke-width="1.0" points="-0.0 0 0.0 0" transform="translate(117.42 92.25) rotate(-270.0)"/><polyline stroke-linecap="round" stroke="black" stroke-width="1.0" points="-0.0 0 0.0 0" transform="translate(114.88 92.25) rotate(-270.0)"/><polyline stroke-linecap="round" stroke="black" stroke-width="1.0" points="-0.0 0 0.0 0" transform="translate(112.34 92.25) rotate(-270.0)"/><polyline stroke-linecap="round" stroke="black" stroke-width="1.0" points="-0.0 0 0.0 0" transform="translate(109.8 92.25) rotate(-270.0)"/><polyline stroke-linecap="round" stroke="black" stroke-width="1.0" points="-0.0 0 0.0 0" transform="translate(107.26 92.25) rotate(-270.0)"/><polyline stroke-linecap="round" stroke="black" stroke-width="0.65" points="-0.0 0 0.0 0" transform="translate(117.05 108.875) rotate(-270.0)"/><polyline stroke-linecap="round" stroke="black" stroke-width="0.65" points="-0.0 0 0.0 0" transform="translate(117.05 110.145) rotate(-270.0)"/><polyline stroke-linecap="round" stroke="black" stroke-width="0.65" points="-0.0 0 0.0 0" transform="translate(115.78 108.875) rotate(-270.0)"/><polyline stroke-linecap="round" stroke="black" stroke-width="0.65" points="-0.0 0 0.0 0" transform="translate(115.78 110.145) rotate(-270.0)"/><polyline stroke-linecap="round" stroke="black" stroke-width="0.65" points="-0.0 0 0.0 0" transform="translate(114.51 108.875) rotate(-270.0)"/><polyline stroke-linecap="round" stroke="black" stroke-width="0.65" points="-0.0 0 0.0 0" transform="translate(114.51 110.145) rotate(-270.0)"/><polyline stroke-linecap="round" stroke="black" stroke-width="0.65" points="-0.0 0 0.0 0" transform="translate(113.24 108.875) rotate(-270.0)"/><polyline stroke-linecap="round" stroke="black" stroke-width="0.65" points="-0.0 0 0.0 0" transform="translate(113.24 110.145) rotate(-270.0)"/><polyline stroke-linecap="round" stroke="black" stroke-width="0.65" points="-0.0 0 0.0 0" transform="translate(111.97 108.875) rotate(-270.0)"/><polyline stroke-linecap="round" stroke="black" stroke-width="0.65" points="-0.0 0 0.0 0" transform="translate(111.97 110.145) rotate(-270.0)"/><polyline stroke-linecap="round" stroke="black" stroke-width="0.65" points="-0.0 0 0.0 0" transform="translate(110.75 103.0) rotate(-270.0)"/><polyline stroke-linecap="round" stroke="black" stroke-width="0.65" points="-0.0 0 0.0 0" transform="translate(110.75 104.27) rotate(-270.0)"/><polyline stroke-linecap="round" stroke="black" stroke-width="0.65" points="-0.0 0 0.0 0" transform="translate(112.02 103.0) rotate(-270.0)"/><polyline stroke-linecap="round" stroke="black" stroke-width="0.65" points="-0.0 0 0.0 0" transform="translate(112.02 104.27) rotate(-270.0)"/><polyline stroke-linecap="round" stroke="black" stroke-width="0.65" points="-0.0 0 0.0 0" transform="translate(113.29 103.0) rotate(-270.0)"/><polyline stroke-linecap="round" stroke="black" stroke-width="0.65" points="-0.0 0 0.0 0" transform="translate(113.29 104.27) rotate(-270.0)"/><polyline stroke-linecap="round" stroke="black" stroke-width="0.65" points="-0.0 0 0.0 0" transform="translate(114.56 103.0) rotate(-270.0)"/><polyline stroke-linecap="round" stroke="black" stroke-width="0.65" points="-0.0 0 0.0 0" transform="translate(114.56 104.27) rotate(-270.0)"/><polyline stroke-linecap="round" stroke="black" stroke-width="0.65" points="-0.0 0 0.0 0" transform="translate(115.83 103.0) rotate(-270.0)"/><polyline stroke-linecap="round" stroke="black" stroke-width="0.65" points="-0.0 0 0.0 0" transform="translate(115.83 104.27) rotate(-270.0)"/><polyline stroke-linecap="round" stroke="black" stroke-width="0.65" points="-0.0 0 0.0 0" transform="translate(117.1 103.0) rotate(-270.0)"/><polyline stroke-linecap="round" stroke="black" stroke-width="0.65" points="-0.0 0 0.0 0" transform="translate(117.1 104.27) rotate(-270.0)"/><polyline stroke-linecap="round" stroke="black" stroke-width="0.65" points="-0.0 0 0.0 0" transform="translate(118.37 103.0) rotate(-270.0)"/><polyline stroke-linecap="round" stroke="black" stroke-width="0.65" points="-0.0 0 0.0 0" transform="translate(118.37 104.27) rotate(-270.0)"/><polyline stroke-linecap="round" stroke="black" stroke-width="0.4" points="-0.0 0 0.0 0" transform="translate(117.75 101.25) rotate(-0.0)"/><polyline stroke-linecap="round" stroke="black" stroke-width="0.4" points="-0.0 0 0.0 0" transform="translate(109.0 110.0) rotate(-0.0)"/><polyline stroke-linecap="round" stroke="black" stroke-width="0.4" points="-0.0 0 0.0 0" transform="translate(114.5 105.8195) rotate(-0.0)"/><polyline stroke-linecap="round" stroke="black" stroke-width="0.4" points="-0.0 0 0.0 0" transform="translate(109.0 102.75) rotate(-0.0)"/><polyline stroke-linecap="round" stroke="black" stroke-width="0.4" points="-0.0 0 0.0 0" transform="translate(108.75 105.0) rotate(-0.0)"/><polyline stroke-linecap="round" stroke="black" stroke-width="0.4" points="-0.0 0 0.0 0" transform="translate(115.348009 101.250531) rotate(-0.0)"/></g></mask></defs><g transform="scale(-1,1)" id="boardContainer"><g id="substrate" clip-path="url(#cut-off)" mask="url(#hole-mask)"><g id="substrate-board" style="fill:#151e6a; stroke:#151e6a;"><path d=" M 125.906 93.65 L 125.906 100.0 L 129.46 100.0 L 129.46 112.573 L 100.0 112.573 L 100.0 100.0 L 103.556 100.0 L 103.556 93.65 L 100.0 93.65 L 100.0 87.844 L 129.464 87.844 L 129.464 93.65 L 125.906 93.65 " style="fill-rule: evenodd;"/><g style="fill-opacity: 0.0;stroke-width: 0.10000;stroke-opacity: 1;stroke-linecap: round;stroke-linejoin: round">
<path d="M129.46400 93.65000 L125.90600 93.65000 "/>
<path d="M129.46000 112.57300 L100.00000 112.57300 "/>
<path d="M103.55600 100.00000 L103.55600 93.65000 "/>
<path d="M129.46000 100.00000 L129.46000 112.57300 "/>
<path d="M100.00000 87.84400 L129.46400 87.84400 "/>
<path d="M103.55600 93.65000 L100.00000 93.65000 "/>
<path d="M100.00000 112.57300 L100.00000 100.00000 "/>
<path d="M100.00000 100.00000 L103.55600 100.00000 "/>
<path d="M129.46400 87.84400 L129.46400 93.65000 "/>
<path d="M125.90600 100.00000 L129.46000 100.00000 "/>
<path d="M125.90600 93.65000 L125.90600 100.00000 "/>
<path d="M100.00000 93.65000 L100.00000 87.84400 "/>
</g> 
</g><g id="substrate-clad" style="fill:#9c6b28; stroke:#9c6b28;"><g style="fill-opacity: 0.0;stroke-width: 0.00000;stroke-opacity: 1;stroke-linecap: round;stroke-linejoin: round">
<g style="fill-opacity: 1.00000;stroke-width: 0.00000;stroke-opacity: 1;stroke-linecap: round;stroke-linejoin: round">
<path style="fill-opacity: 1.00000;stroke-width: 0.00000;stroke-opacity: 1;stroke-linecap: round;stroke-linejoin: round;fill-rule: evenodd" d="M 121.65000,91.40000 123.35000,91.40000 123.35000,93.10000 121.65000,93.10000 Z"/> 
<circle cx="119.96000" cy="92.25000" r="0.85000"/> 
<circle cx="117.42000" cy="92.25000" r="0.85000"/> 
<circle cx="114.88000" cy="92.25000" r="0.85000"/> 
<circle cx="112.34000" cy="92.25000" r="0.85000"/> 
<circle cx="109.80000" cy="92.25000" r="0.85000"/> 
<circle cx="107.26000" cy="92.25000" r="0.85000"/> 
</g>
<g style="fill-opacity: 1.00000;stroke-width: 0.00000;stroke-opacity: 1;stroke-linecap: round;stroke-linejoin: round">
<path style="fill-opacity: 1.00000;stroke-width: 0.00000;stroke-opacity: 1;stroke-linecap: round;stroke-linejoin: round;fill-rule: evenodd" d="M 116.55000,108.37500 117.55000,108.37500 117.55000,109.37500 116.55000,109.37500 Z"/> 
<circle cx="117.05000" cy="110.14500" r="0.50000"/> 
<circle cx="115.78000" cy="108.87500" r="0.50000"/> 
<circle cx="115.78000" cy="110.14500" r="0.50000"/> 
<circle cx="114.51000" cy="108.87500" r="0.50000"/> 
<circle cx="114.51000" cy="110.14500" r="0.50000"/> 
<circle cx="113.24000" cy="108.87500" r="0.50000"/> 
<circle cx="113.24000" cy="110.14500" r="0.50000"/> 
<circle cx="111.97000" cy="108.87500" r="0.50000"/> 
<circle cx="111.97000" cy="110.14500" r="0.50000"/> 
</g>
<g style="fill-opacity: 1.00000;stroke-width: 0.00000;stroke-opacity: 1;stroke-linecap: round;stroke-linejoin: round">
<path style="fill-opacity: 1.00000;stroke-width: 0.00000;stroke-opacity: 1;stroke-linecap: round;stroke-linejoin: round;fill-rule: evenodd" d="M 110.25000,102.50000 111.25000,102.50000 111.25000,103.50000 110.25000,103.50000 Z"/> 
<circle cx="110.75000" cy="104.27000" r="0.50000"/> 
<circle cx="112.02000" cy="103.00000" r="0.50000"/> 
<circle cx="112.02000" cy="104.27000" r="0.50000"/> 
<circle cx="113.29000" cy="103.00000" r="0.50000"/> 
<circle cx="113.29000" cy="104.27000" r="0.50000"/> 
<circle cx="114.56000" cy="103.00000" r="0.50000"/> 
<circle cx="114.56000" cy="104.27000" r="0.50000"/> 
<circle cx="115.83000" cy="103.00000" r="0.50000"/> 
<circle cx="115.83000" cy="104.27000" r="0.50000"/> 
<circle cx="117.10000" cy="103.00000" r="0.50000"/> 
<circle cx="117.10000" cy="104.27000" r="0.50000"/> 
<circle cx="118.37000" cy="103.00000" r="0.50000"/> 
<circle cx="118.37000" cy="104.27000" r="0.50000"/> 
</g>
</g> 
</g><g id="substrate-copper" style="fill:#213e7a; stroke:#213e7a;"><g style="fill-opacity: 0.0;stroke-width: 0.00000;stroke-opacity: 1;stroke-linecap: round;stroke-linejoin: round">
<g style="fill-opacity: 1.00000;stroke-width: 0.00000;stroke-opacity: 1;stroke-linecap: round;stroke-linejoin: round">
<path style="fill-opacity: 1.00000;stroke-width: 0.00000;stroke-opacity: 1;stroke-linecap: round;stroke-linejoin: round;fill-rule: evenodd" d="M 121.65000,91.40000 123.35000,91.40000 123.35000,93.10000 121.65000,93.10000 Z"/> 
<circle cx="119.96000" cy="92.25000" r="0.85000"/> 
<circle cx="117.42000" cy="92.25000" r="0.85000"/> 
<circle cx="114.88000" cy="92.25000" r="0.85000"/> 
<circle cx="112.34000" cy="92.25000" r="0.85000"/> 
<circle cx="109.80000" cy="92.25000" r="0.85000"/> 
<circle cx="107.26000" cy="92.25000" r="0.85000"/> 
</g>
<g style="fill-opacity: 1.00000;stroke-width: 0.00000;stroke-opacity: 1;stroke-linecap: round;stroke-linejoin: round">
<path style="fill-opacity: 1.00000;stroke-width: 0.00000;stroke-opacity: 1;stroke-linecap: round;stroke-linejoin: round;fill-rule: evenodd" d="M 116.55000,108.37500 117.55000,108.37500 117.55000,109.37500 116.55000,109.37500 Z"/> 
<circle cx="117.05000" cy="110.14500" r="0.50000"/> 
<circle cx="115.78000" cy="108.87500" r="0.50000"/> 
<circle cx="115.78000" cy="110.14500" r="0.50000"/> 
<circle cx="114.51000" cy="108.87500" r="0.50000"/> 
<circle cx="114.51000" cy="110.14500" r="0.50000"/> 
<circle cx="113.24000" cy="108.87500" r="0.50000"/> 
<circle cx="113.24000" cy="110.14500" r="0.50000"/> 
<circle cx="111.97000" cy="108.87500" r="0.50000"/> 
<circle cx="111.97000" cy="110.14500" r="0.50000"/> 
</g>
<g style="fill-opacity: 1.00000;stroke-width: 0.00000;stroke-opacity: 1;stroke-linecap: round;stroke-linejoin: round">
<path style="fill-opacity: 1.00000;stroke-width: 0.00000;stroke-opacity: 1;stroke-linecap: round;stroke-linejoin: round;fill-rule: evenodd" d="M 110.25000,102.50000 111.25000,102.50000 111.25000,103.50000 110.25000,103.50000 Z"/> 
<circle cx="110.75000" cy="104.27000" r="0.50000"/> 
<circle cx="112.02000" cy="103.00000" r="0.50000"/> 
<circle cx="112.02000" cy="104.27000" r="0.50000"/> 
<circle cx="113.29000" cy="103.00000" r="0.50000"/> 
<circle cx="113.29000" cy="104.27000" r="0.50000"/> 
<circle cx="114.56000" cy="103.00000" r="0.50000"/> 
<circle cx="114.56000" cy="104.27000" r="0.50000"/> 
<circle cx="115.83000" cy="103.00000" r="0.50000"/> 
<circle cx="115.83000" cy="104.27000" r="0.50000"/> 
<circle cx="117.10000" cy="103.00000" r="0.50000"/> 
<circle cx="117.10000" cy="104.27000" r="0.50000"/> 
<circle cx="118.37000" cy="103.00000" r="0.50000"/> 
<circle cx="118.37000" cy="104.27000" r="0.50000"/> 
</g>
<g style="fill-opacity: 1.00000;stroke-width: 0.00000;stroke-opacity: 1;stroke-linecap: round;stroke-linejoin: round">
<circle cx="117.75000" cy="101.25000" r="0.40000"/> 
</g>
<g style="fill-opacity: 1.00000;stroke-width: 0.00000;stroke-opacity: 1;stroke-linecap: round;stroke-linejoin: round">
<circle cx="109.00000" cy="110.00000" r="0.40000"/> 
</g>
<g style="fill-opacity: 1.00000;stroke-width: 0.00000;stroke-opacity: 1;stroke-linecap: round;stroke-linejoin: round">
<circle cx="114.50000" cy="105.81950" r="0.40000"/> 
</g>
<g style="fill-opacity: 1.00000;stroke-width: 0.00000;stroke-opacity: 1;stroke-linecap: round;stroke-linejoin: round">
<circle cx="109.00000" cy="102.75000" r="0.40000"/> 
</g>
<g style="fill-opacity: 1.00000;stroke-width: 0.00000;stroke-opacity: 1;stroke-linecap: round;stroke-linejoin: round">
<circle cx="108.75000" cy="105.00000" r="0.40000"/> 
</g>
<g style="fill-opacity: 1.00000;stroke-width: 0.00000;stroke-opacity: 1;stroke-linecap: round;stroke-linejoin: round">
<circle cx="115.34801" cy="101.25053" r="0.40000"/> 
</g>
<g style="fill-opacity: 0.0;stroke-width: 0.25000;stroke-opacity: 1;stroke-linecap: round;stroke-linejoin: round">
<path d="M117.25000 93.50000 L118.71000 93.50000 "/>
<path d="M118.71000 93.50000 L119.96000 92.25000 "/>
<path d="M116.50000 102.00000 L116.50000 94.25000 "/>
<path d="M113.02000 102.00000 L112.02000 103.00000 "/>
<path d="M116.50000 102.00000 L113.02000 102.00000 "/>
<path d="M119.96000 102.96000 L119.00000 102.00000 "/>
<path d="M119.00000 102.00000 L116.50000 102.00000 "/>
<path d="M119.96000 109.29000 L119.96000 102.96000 "/>
<path d="M116.50000 94.25000 L117.25000 93.50000 "/>
<path d="M117.05000 110.14500 L119.10500 110.14500 "/>
<path d="M119.10500 110.14500 L119.96000 109.29000 "/>
<path d="M109.00000 93.05000 L109.80000 92.25000 "/>
<path d="M114.51000 108.87500 L114.51000 105.82950 "/>
<path d="M114.51000 105.82950 L114.50000 105.81950 "/>
<path d="M109.00000 102.75000 L109.00000 93.05000 "/>
<path d="M108.75000 105.00000 L107.26000 103.51000 "/>
<path d="M115.00500 105.09500 L113.90500 105.09500 "/>
<path d="M115.83000 104.27000 L115.00500 105.09500 "/>
<path d="M107.26000 103.51000 L107.26000 92.25000 "/>
<path d="M113.25000 105.75000 L113.25000 108.86500 "/>
<path d="M113.90500 105.09500 L113.25000 105.75000 "/>
<path d="M109.75000 102.50000 L110.87781 101.37219 "/>
<path d="M109.75000 109.75000 L109.75000 102.50000 "/>
<path d="M113.03000 110.97000 L110.97000 110.97000 "/>
<path d="M112.37781 101.37219 L115.22635 101.37219 "/>
<path d="M113.24000 110.14500 L113.24000 110.76000 "/>
<path d="M111.12219 101.37219 L112.37781 101.37219 "/>
<path d="M115.22635 101.37219 L115.34801 101.25053 "/>
<path d="M112.34000 92.25000 L112.34000 101.33437 "/>
<path d="M112.34000 101.33437 L112.37781 101.37219 "/>
<path d="M110.87781 101.37219 L111.12219 101.37219 "/>
<path d="M113.24000 110.76000 L113.03000 110.97000 "/>
<path d="M110.97000 110.97000 L109.75000 109.75000 "/>
</g>
<g style="fill-opacity: 0.0;stroke-width: 0.25000;stroke-opacity: 1;stroke-linecap: round;stroke-linejoin: round">
<g style="fill-opacity: 1.00000;stroke-width: 0.00000;stroke-opacity: 1;stroke-linecap: round;stroke-linejoin: round">
<path style="fill-opacity: 1.00000;stroke-width: 0.00000;stroke-opacity: 1;stroke-linecap: round;stroke-linejoin: round;fill-rule: evenodd" d="M 128.89762,88.37250 128.94411,88.42616 128.95550,88.47850 128.95550,93.01550 128.93550,93.08362 128.88184,93.13011 128.82950,93.14150 125.91462,93.14150 125.91385,93.14150 125.91304,93.14149 125.83628,93.14102 125.81392,93.14741 125.80785,93.14915 125.79108,93.15273 125.76181,93.15692 125.75364,93.16063 125.75364,93.16063 125.73844,93.16755 125.72091,93.17400 125.69623,93.18105 125.68863,93.18584 125.68863,93.18584 125.67122,93.19683 125.65614,93.20497 125.62922,93.21721 125.62242,93.22307 125.60976,93.23397 125.59476,93.24507 125.57304,93.25878 125.56710,93.26550 125.56710,93.26550 125.55347,93.28094 125.54128,93.29298 125.52567,93.30643 125.52567,93.30643 125.51887,93.31229 125.51399,93.31982 125.51399,93.31982 125.50491,93.33383 125.49361,93.34871 125.48257,93.36122 125.47662,93.36795 125.47031,93.38139 125.46406,93.39471 125.45574,93.40969 125.44453,93.42698 125.44453,93.42699 125.43965,93.43451 125.43708,93.44311 125.43708,93.44311 125.43229,93.45912 125.42563,93.47656 125.41853,93.49168 125.41472,93.49980 125.41334,93.50867 125.41334,93.50867 125.41017,93.52902 125.40639,93.54573 125.40048,93.56547 125.40048,93.56547 125.39791,93.57407 125.39772,93.60512 125.39770,93.60850 125.39767,93.60929 125.39750,93.61039 125.39750,93.64138 125.39750,93.64215 125.39702,93.71972 125.39741,93.72106 125.39750,93.72241 125.39750,99.99138 125.39750,99.99215 125.39702,100.06972 125.39949,100.07835 125.40515,100.09815 125.40873,100.11491 125.41292,100.14419 125.41663,100.15236 125.41663,100.15236 125.42355,100.16756 125.43000,100.18509 125.43705,100.20977 125.44184,100.21737 125.44184,100.21737 125.45283,100.23478 125.46097,100.24986 125.47321,100.27678 125.47907,100.28358 125.48997,100.29623 125.50107,100.31124 125.51478,100.33296 125.52150,100.33890 125.52150,100.33890 125.53694,100.35253 125.54898,100.36472 125.56243,100.38033 125.56243,100.38033 125.56829,100.38713 125.57582,100.39201 125.57582,100.39201 125.58983,100.40109 125.60471,100.41239 125.61061,100.41760 125.62395,100.42938 125.65071,100.44194 125.66569,100.45026 125.68298,100.46147 125.68299,100.46147 125.69051,100.46635 125.69911,100.46892 125.69911,100.46892 125.71512,100.47371 125.73256,100.48037 125.74768,100.48747 125.74768,100.48747 125.75580,100.49128 125.76467,100.49266 125.76467,100.49266 125.76735,100.49308 125.78502,100.49583 125.80173,100.49961 125.82147,100.50551 125.82147,100.50552 125.83007,100.50809 125.83904,100.50814 125.83904,100.50814 125.84910,100.50820 125.86451,100.50830 125.86529,100.50833 125.86639,100.50850 125.89738,100.50850 125.89815,100.50850 125.97178,100.50895 125.97179,100.50895 125.97572,100.50898 125.97706,100.50859 125.97841,100.50850 128.82550,100.50850 128.89362,100.52850 128.94011,100.58216 128.95150,100.63450 128.95150,111.93850 128.93150,112.00662 128.87784,112.05311 128.82550,112.06450 100.63450,112.06450 100.56638,112.04450 100.51989,111.99084 100.50850,111.93850 100.50850,100.63450 100.52850,100.56638 100.58216,100.51989 100.63450,100.50850 103.54738,100.50850 103.54815,100.50850 103.62572,100.50898 103.65415,100.50085 103.67091,100.49727 103.67175,100.49715 103.70019,100.49308 103.72356,100.48245 103.74109,100.47600 103.76577,100.46895 103.77336,100.46416 103.77337,100.46416 103.79078,100.45317 103.80586,100.44503 103.83278,100.43279 103.85223,100.41603 103.86724,100.40493 103.88896,100.39122 103.89490,100.38450 103.89490,100.38450 103.90853,100.36906 103.92072,100.35702 103.93633,100.34357 103.93633,100.34357 103.94313,100.33771 103.95709,100.31616 103.96838,100.30129 103.97943,100.28878 103.97943,100.28878 103.98538,100.28205 103.99794,100.25529 104.00626,100.24031 104.01747,100.22302 104.01747,100.22301 104.02235,100.21549 104.02492,100.20689 104.02492,100.20689 104.02971,100.19088 104.03637,100.17344 104.04347,100.15832 104.04347,100.15832 104.04728,100.15020 104.05183,100.12098 104.05561,100.10427 104.06151,100.08453 104.06152,100.08453 104.06409,100.07593 104.06430,100.04149 104.06433,100.04071 104.06450,100.03961 104.06450,100.00862 104.06450,100.00785 104.06495,99.93421 104.06495,99.93421 104.06498,99.93028 104.06459,99.92893 104.06450,99.92759 104.06450,93.65862 104.06450,93.65785 104.06460,93.64138 104.06498,93.58028 104.05685,93.55185 104.05327,93.53508 104.05240,93.52902 104.04908,93.50581 104.03845,93.48244 104.03200,93.46491 104.03035,93.45912 104.02495,93.44023 104.02016,93.43263 104.00917,93.41522 104.00103,93.40013 103.99856,93.39471 103.98879,93.37322 103.97203,93.35376 103.96093,93.33876 103.94722,93.31704 103.94050,93.31110 103.94050,93.31110 103.92506,93.29747 103.91302,93.28528 103.89957,93.26967 103.89957,93.26967 103.89371,93.26287 103.88001,93.25399 103.87216,93.24891 103.85729,93.23761 103.84478,93.22657 103.84478,93.22657 103.83805,93.22062 103.81129,93.20806 103.79631,93.19974 103.77902,93.18853 103.77901,93.18853 103.77148,93.18365 103.76289,93.18108 103.76289,93.18108 103.74688,93.17629 103.72944,93.16963 103.71432,93.16253 103.71432,93.16253 103.70620,93.15872 103.69733,93.15734 103.69733,93.15734 103.68648,93.15565 103.67698,93.15417 103.66027,93.15039 103.64053,93.14448 103.64053,93.14448 103.63193,93.14191 103.62296,93.14186 103.62296,93.14186 103.61290,93.14180 103.59749,93.14170 103.59671,93.14167 103.59561,93.14150 103.56462,93.14150 103.56385,93.14150 103.49021,93.14105 103.49021,93.14105 103.48628,93.14102 103.48493,93.14141 103.48359,93.14150 100.63450,93.14150 100.56638,93.12150 100.51989,93.06784 100.50850,93.01550 100.50850,92.21670 105.89725,92.21670 105.91011,92.43971 105.91125,92.44476 105.91125,92.44477 105.92561,92.50847 105.95922,92.65764 106.04327,92.86462 106.09494,92.94894 106.15729,93.05069 106.15999,93.05509 106.30625,93.22394 106.42174,93.31982 106.46769,93.35797 106.47813,93.36663 106.56127,93.41522 106.56407,93.41685 106.61279,93.46849 106.62650,93.52564 106.62650,103.43123 106.62597,103.44242 106.62430,103.44991 106.62455,103.45783 106.62455,103.45784 106.62644,103.51799 106.62650,103.52195 106.62650,103.54986 106.62700,103.55379 106.62700,103.55379 106.62700,103.55386 106.62794,103.56569 106.62933,103.60989 106.63231,103.62017 106.63498,103.62934 106.63899,103.64870 106.64153,103.66880 106.64444,103.67617 106.64444,103.67617 106.65780,103.70991 106.66165,103.72114 106.67177,103.75598 106.67398,103.76359 106.67802,103.77041 106.67802,103.77042 106.68429,103.78103 106.69299,103.79878 106.70045,103.81762 106.70511,103.82403 106.70511,103.82403 106.72644,103.85339 106.73295,103.86331 106.75546,103.90136 106.76978,103.91568 106.78262,103.93072 106.79453,103.94711 106.80063,103.95216 106.82860,103.97530 106.83738,103.98329 107.80288,104.94878 107.83690,105.01109 107.83909,105.02470 107.85646,105.18993 107.91547,105.37156 107.91878,105.37728 107.91878,105.37728 107.92753,105.39243 108.01096,105.53694 108.01538,105.54185 108.01538,105.54185 108.13074,105.66997 108.13875,105.67887 108.15438,105.69022 108.28596,105.78582 108.29325,105.79112 108.29928,105.79380 108.29928,105.79380 108.46168,105.86611 108.46771,105.86879 108.56111,105.88865 108.64806,105.90713 108.64806,105.90713 108.65451,105.90850 108.84549,105.90850 108.85194,105.90713 108.85194,105.90713 108.96430,105.88325 109.03509,105.88865 109.09173,105.93146 109.11622,105.99810 109.11650,106.00649 109.11650,109.67123 109.11597,109.68242 109.11430,109.68991 109.11455,109.69783 109.11455,109.69784 109.11644,109.75799 109.11650,109.76194 109.11650,109.78986 109.11700,109.79379 109.11700,109.79379 109.11700,109.79386 109.11794,109.80569 109.11933,109.84989 109.12364,109.86474 109.12498,109.86934 109.12899,109.88870 109.13153,109.90880 109.13444,109.91617 109.13444,109.91617 109.14780,109.94991 109.15165,109.96114 109.16398,110.00359 109.16801,110.01041 109.16802,110.01042 109.17429,110.02103 109.18299,110.03878 109.19045,110.05762 109.19511,110.06403 109.19511,110.06403 109.21644,110.09339 109.22295,110.10331 109.23924,110.13085 109.24546,110.14136 109.25978,110.15568 109.27262,110.17072 109.28453,110.18711 109.29063,110.19216 109.31860,110.21530 109.32738,110.22329 110.46634,111.36225 110.47389,111.37054 110.47800,111.37702 110.48378,111.38244 110.52767,111.42366 110.53051,111.42641 110.55023,111.44613 110.55335,111.44856 110.55336,111.44856 110.55342,111.44861 110.56244,111.45632 110.59468,111.48659 110.60163,111.49040 110.60163,111.49041 110.61243,111.49635 110.62896,111.50720 110.63870,111.51476 110.63870,111.51476 110.64496,111.51961 110.68554,111.53717 110.69619,111.54239 110.72098,111.55602 110.73494,111.56369 110.74262,111.56567 110.74262,111.56567 110.75456,111.56873 110.77327,111.57514 110.79185,111.58318 110.79968,111.58442 110.79969,111.58442 110.83552,111.59010 110.84714,111.59250 110.87896,111.60067 110.88997,111.60350 110.91022,111.60350 110.92993,111.60505 110.94994,111.60822 110.95783,111.60747 110.97658,111.60570 110.99396,111.60406 111.00582,111.60350 112.95123,111.60350 112.96242,111.60403 112.96991,111.60570 112.97783,111.60545 112.97784,111.60545 113.03799,111.60356 113.04194,111.60350 113.06986,111.60350 113.07379,111.60300 113.07386,111.60299 113.08569,111.60206 113.11795,111.60105 113.12197,111.60092 113.12989,111.60067 113.14934,111.59502 113.16870,111.59101 113.18093,111.58947 113.18093,111.58947 113.18880,111.58847 113.19617,111.58555 113.19617,111.58555 113.22991,111.57220 113.24114,111.56835 113.27598,111.55823 113.27598,111.55823 113.28359,111.55602 113.29041,111.55199 113.29042,111.55198 113.30103,111.54571 113.31878,111.53701 113.33762,111.52955 113.37339,111.50356 113.38331,111.49705 113.41454,111.47858 113.41454,111.47858 113.42136,111.47454 113.43569,111.46022 113.45071,111.44738 113.46711,111.43547 113.49529,111.40140 113.50328,111.39262 113.63226,111.26365 113.64054,111.25611 113.64702,111.25200 113.69364,111.20235 113.69640,111.19951 113.71613,111.17977 113.71861,111.17657 113.72632,111.16755 113.75116,111.14110 113.75659,111.13532 113.76040,111.12837 113.76041,111.12837 113.76635,111.11757 113.77720,111.10105 113.78476,111.09130 113.78961,111.08504 113.79276,111.07777 113.79276,111.07777 113.79949,111.06221 113.84490,111.00763 113.91261,110.98627 113.97660,111.00226 114.09891,111.07062 114.09891,111.07062 114.10429,111.07362 114.29239,111.13474 114.48878,111.15816 114.49491,111.15769 114.49491,111.15769 114.67983,111.14346 114.67983,111.14346 114.68597,111.14298 114.87646,111.08980 114.88197,111.08702 114.88197,111.08702 115.04749,111.00341 115.04749,111.00340 115.05300,111.00062 115.05785,110.99683 115.05786,110.99683 115.06655,110.99004 115.13254,110.96386 115.20559,110.97934 115.37429,111.07362 115.56239,111.13474 115.75878,111.15816 115.76491,111.15769 115.76491,111.15769 115.94983,111.14346 115.94983,111.14346 115.95597,111.14298 116.14646,111.08980 116.15197,111.08702 116.15197,111.08702 116.31749,111.00341 116.31749,111.00340 116.32300,111.00062 116.32785,110.99683 116.32786,110.99683 116.33655,110.99004 116.40254,110.96386 116.47559,110.97934 116.64429,111.07362 116.83239,111.13474 117.02878,111.15816 117.03491,111.15769 117.03491,111.15769 117.21983,111.14346 117.21983,111.14346 117.22597,111.14298 117.41646,111.08980 117.42197,111.08702 117.42197,111.08702 117.58749,111.00340 117.58750,111.00340 117.59300,111.00062 117.74885,110.87886 117.79778,110.82217 117.85743,110.78367 117.89316,110.77850 119.02623,110.77850 119.03742,110.77903 119.04491,110.78070 119.05283,110.78045 119.05284,110.78045 119.11299,110.77856 119.11695,110.77850 119.14486,110.77850 119.14879,110.77800 119.14886,110.77799 119.16069,110.77706 119.19295,110.77605 119.19697,110.77592 119.20489,110.77567 119.22434,110.77002 119.24370,110.76601 119.25593,110.76447 119.25593,110.76447 119.26380,110.76347 119.27117,110.76055 119.27117,110.76055 119.30491,110.74720 119.31614,110.74335 119.35098,110.73323 119.35098,110.73323 119.35859,110.73102 119.36541,110.72698 119.36542,110.72698 119.37603,110.72071 119.39378,110.71201 119.41262,110.70455 119.44839,110.67856 119.45831,110.67205 119.48953,110.65358 119.48954,110.65358 119.49636,110.64954 119.51068,110.63522 119.52572,110.62238 119.53569,110.61513 119.54211,110.61047 119.57030,110.57639 119.57829,110.56762 120.35225,109.79366 120.36054,109.78611 120.36702,109.78200 120.41366,109.73233 120.41641,109.72949 120.43613,109.70977 120.43861,109.70658 120.44632,109.69755 120.47116,109.67110 120.47659,109.66532 120.48041,109.65837 120.48635,109.64757 120.49720,109.63104 120.50476,109.62130 120.50476,109.62130 120.50961,109.61504 120.52717,109.57446 120.53239,109.56381 120.54988,109.53201 120.54988,109.53201 120.55369,109.52506 120.55873,109.50544 120.56514,109.48673 120.57003,109.47542 120.57003,109.47542 120.57318,109.46814 120.57442,109.46032 120.57442,109.46031 120.58010,109.42448 120.58250,109.41286 120.59153,109.37771 120.59153,109.37771 120.59350,109.37003 120.59350,109.34978 120.59505,109.33006 120.59698,109.31789 120.59822,109.31006 120.59406,109.26604 120.59350,109.25418 120.59350,103.03877 120.59403,103.02758 120.59570,103.02009 120.59507,103.00000 120.59356,102.95201 120.59350,102.94805 120.59350,102.92014 120.59299,102.91614 120.59206,102.90430 120.59092,102.86803 120.59067,102.86011 120.58502,102.84066 120.58101,102.82130 120.57947,102.80907 120.57947,102.80907 120.57847,102.80120 120.57376,102.78931 120.56220,102.76009 120.55835,102.74886 120.54823,102.71402 120.54823,102.71402 120.54602,102.70641 120.54198,102.69959 120.54198,102.69958 120.53571,102.68897 120.52701,102.67122 120.51955,102.65238 120.49356,102.61661 120.48705,102.60669 120.46858,102.57546 120.46858,102.57546 120.46454,102.56864 120.45022,102.55432 120.43738,102.53928 120.43013,102.52931 120.42547,102.52289 120.41937,102.51784 120.41936,102.51784 120.39140,102.49471 120.38262,102.48672 119.50365,101.60774 119.49611,101.59946 119.49200,101.59298 119.44235,101.54636 119.43951,101.54360 119.41977,101.52387 119.41657,101.52138 119.40755,101.51368 119.39884,101.50550 119.37532,101.48341 119.36838,101.47959 119.36837,101.47959 119.35757,101.47365 119.34105,101.46280 119.34058,101.46244 119.32504,101.45039 119.31777,101.44724 119.31777,101.44724 119.28446,101.43283 119.27381,101.42761 119.23506,101.40630 119.21544,101.40127 119.19673,101.39486 119.18542,101.38997 119.18542,101.38997 119.17815,101.38682 119.17032,101.38558 119.17031,101.38558 119.13448,101.37990 119.12286,101.37749 119.08771,101.36847 119.08771,101.36847 119.08003,101.36650 119.05978,101.36650 119.04006,101.36495 119.02789,101.36302 119.02006,101.36178 119.01216,101.36253 118.97604,101.36594 118.96418,101.36650 117.25950,101.36650 117.19138,101.34650 117.14489,101.29284 117.13350,101.24050 117.13350,94.56459 117.15350,94.49647 117.17040,94.47550 117.47550,94.17041 117.53781,94.13638 117.56459,94.13350 118.63123,94.13350 118.64242,94.13403 118.64991,94.13570 118.65783,94.13545 118.65784,94.13545 118.71799,94.13356 118.72194,94.13350 118.74986,94.13350 118.75379,94.13300 118.75386,94.13299 118.76569,94.13206 118.79795,94.13105 118.80197,94.13092 118.80989,94.13067 118.82934,94.12502 118.84870,94.12101 118.86093,94.11947 118.86093,94.11947 118.86880,94.11847 118.87617,94.11556 118.87617,94.11556 118.90991,94.10220 118.92114,94.09835 118.95598,94.08823 118.95598,94.08823 118.96359,94.08602 118.97041,94.08198 118.97042,94.08198 118.98103,94.07571 118.99878,94.06701 119.01762,94.05955 119.05339,94.03356 119.06331,94.02705 119.09453,94.00858 119.09454,94.00858 119.10136,94.00454 119.11568,93.99022 119.13072,93.97738 119.13234,93.97620 119.14711,93.96547 119.17530,93.93139 119.18329,93.92262 119.50455,93.60135 119.56686,93.56733 119.61876,93.56698 119.79860,93.60357 119.80377,93.60376 119.80377,93.60376 120.01667,93.61156 120.01668,93.61156 120.02184,93.61175 120.02696,93.61110 120.02696,93.61110 120.23829,93.58402 120.23829,93.58402 120.24342,93.58337 120.27442,93.57407 120.45243,93.52066 120.45243,93.52066 120.45738,93.51917 120.65799,93.42090 120.83986,93.29117 120.84367,93.28738 120.94848,93.18293 121.01085,93.14902 121.08166,93.15420 121.13842,93.19685 121.15540,93.22795 121.19668,93.33805 121.20521,93.35365 121.28171,93.45572 121.29428,93.46828 121.39635,93.54479 121.41195,93.55332 121.53239,93.59848 121.54765,93.60210 121.59851,93.60763 121.60533,93.60800 122.22789,93.60800 122.24312,93.60352 122.24433,93.60213 122.24600,93.59445 122.24600,93.58988 122.75400,93.58988 122.75847,93.60512 122.75986,93.60633 122.76755,93.60800 123.39467,93.60800 123.40149,93.60763 123.45235,93.60210 123.46760,93.59848 123.58805,93.55332 123.60365,93.54479 123.70572,93.46828 123.71828,93.45572 123.79479,93.35365 123.80332,93.33805 123.84848,93.21761 123.85210,93.20235 123.85763,93.15149 123.85800,93.14467 123.85800,92.52211 123.85352,92.50688 123.85213,92.50567 123.84445,92.50400 122.77211,92.50400 122.75688,92.50847 122.75567,92.50986 122.75400,92.51755 122.75400,93.58988 122.24600,93.58988 122.24600,91.97789 122.75400,91.97789 122.75847,91.99312 122.75986,91.99433 122.76755,91.99600 123.83988,91.99600 123.85512,91.99152 123.85633,91.99013 123.85800,91.98245 123.85800,91.35533 123.85763,91.34851 123.85210,91.29765 123.84848,91.28240 123.80332,91.16195 123.79479,91.14635 123.71828,91.04428 123.70572,91.03171 123.60365,90.95521 123.58805,90.94668 123.46761,90.90152 123.45235,90.89789 123.40149,90.89237 123.39467,90.89200 122.77211,90.89200 122.75688,90.89647 122.75567,90.89786 122.75400,90.90555 122.75400,91.97789 122.24600,91.97789 122.24600,90.91012 122.24152,90.89488 122.24013,90.89367 122.23245,90.89200 121.60533,90.89200 121.59851,90.89237 121.54765,90.89789 121.53240,90.90152 121.41195,90.94668 121.39635,90.95521 121.29428,91.03171 121.28171,91.04428 121.20521,91.14635 121.19668,91.16195 121.15530,91.27232 121.11265,91.32909 121.04609,91.35379 120.97674,91.33858 120.94412,91.31289 120.89315,91.25688 120.89314,91.25687 120.88967,91.25305 120.88562,91.24985 120.88562,91.24985 120.71841,91.11780 120.71841,91.11780 120.71436,91.11460 120.51879,91.00664 120.51392,91.00491 120.51392,91.00491 120.31309,90.93379 120.31308,90.93379 120.30821,90.93207 120.30312,90.93116 120.30312,90.93116 120.09337,90.89380 120.09337,90.89380 120.08828,90.89289 120.01445,90.89199 119.87008,90.89023 119.87008,90.89023 119.86491,90.89016 119.64409,90.92395 119.43176,90.99336 119.23361,91.09651 119.22947,91.09961 119.22947,91.09961 119.14645,91.16195 119.05496,91.23063 118.90063,91.39214 118.79320,91.54962 118.73829,91.59462 118.66777,91.60279 118.60402,91.57154 118.58332,91.54705 118.50282,91.42262 118.50282,91.42261 118.50001,91.41828 118.34967,91.25305 118.34562,91.24985 118.34561,91.24985 118.17841,91.11780 118.17841,91.11780 118.17436,91.11460 117.97879,91.00664 117.97392,91.00491 117.97392,91.00491 117.77309,90.93379 117.77308,90.93379 117.76821,90.93207 117.76312,90.93116 117.76312,90.93116 117.55337,90.89380 117.55337,90.89380 117.54828,90.89289 117.47445,90.89199 117.33008,90.89023 117.33008,90.89023 117.32491,90.89016 117.10409,90.92395 116.89176,90.99336 116.69361,91.09651 116.68947,91.09961 116.68947,91.09961 116.60645,91.16195 116.51496,91.23063 116.36063,91.39214 116.25320,91.54962 116.19829,91.59462 116.12777,91.60279 116.06402,91.57154 116.04332,91.54705 115.96282,91.42262 115.96282,91.42261 115.96001,91.41828 115.80967,91.25305 115.80562,91.24985 115.80561,91.24985 115.63841,91.11780 115.63841,91.11780 115.63436,91.11460 115.43879,91.00664 115.43392,91.00491 115.43392,91.00491 115.23309,90.93379 115.23308,90.93379 115.22821,90.93207 115.22312,90.93116 115.22312,90.93116 115.01337,90.89380 115.01337,90.89380 115.00828,90.89289 114.93445,90.89199 114.79008,90.89023 114.79008,90.89023 114.78491,90.89016 114.56409,90.92395 114.35176,90.99336 114.15361,91.09651 114.14947,91.09961 114.14947,91.09961 114.06645,91.16195 113.97496,91.23063 113.82063,91.39214 113.71320,91.54962 113.65829,91.59462 113.58777,91.60279 113.52402,91.57154 113.50332,91.54705 113.42282,91.42262 113.42282,91.42261 113.42001,91.41828 113.26967,91.25305 113.26562,91.24985 113.26561,91.24985 113.09841,91.11780 113.09841,91.11780 113.09436,91.11460 112.89879,91.00664 112.89392,91.00491 112.89392,91.00491 112.69309,90.93379 112.69308,90.93379 112.68821,90.93207 112.68312,90.93116 112.68312,90.93116 112.47337,90.89380 112.47337,90.89380 112.46828,90.89289 112.39445,90.89199 112.25008,90.89023 112.25008,90.89023 112.24491,90.89016 112.02409,90.92395 111.81176,90.99336 111.61361,91.09651 111.60947,91.09961 111.60947,91.09961 111.52645,91.16195 111.43496,91.23063 111.28063,91.39214 111.17320,91.54962 111.11829,91.59462 111.04777,91.60279 110.98402,91.57154 110.96332,91.54705 110.88282,91.42262 110.88282,91.42261 110.88001,91.41828 110.72967,91.25305 110.72562,91.24985 110.72561,91.24985 110.55841,91.11780 110.55841,91.11780 110.55436,91.11460 110.35879,91.00664 110.35392,91.00491 110.35392,91.00491 110.15309,90.93379 110.15308,90.93379 110.14821,90.93207 110.14312,90.93116 110.14312,90.93116 109.93337,90.89380 109.93337,90.89380 109.92828,90.89289 109.85445,90.89199 109.71008,90.89023 109.71008,90.89023 109.70491,90.89016 109.48409,90.92395 109.27176,90.99336 109.07361,91.09651 109.06947,91.09961 109.06947,91.09961 108.98645,91.16195 108.89496,91.23063 108.74063,91.39214 108.63320,91.54962 108.57829,91.59462 108.50777,91.60279 108.44402,91.57154 108.42332,91.54705 108.34282,91.42262 108.34282,91.42261 108.34001,91.41828 108.18967,91.25305 108.18562,91.24985 108.18561,91.24985 108.01841,91.11780 108.01841,91.11780 108.01436,91.11460 107.81879,91.00664 107.81392,91.00491 107.81392,91.00491 107.61309,90.93379 107.61308,90.93379 107.60821,90.93207 107.60312,90.93116 107.60312,90.93116 107.39337,90.89380 107.39337,90.89380 107.38828,90.89289 107.31445,90.89199 107.17008,90.89023 107.17008,90.89023 107.16491,90.89016 106.94409,90.92395 106.73176,90.99336 106.53361,91.09651 106.52947,91.09961 106.52947,91.09961 106.44645,91.16195 106.35496,91.23063 106.20063,91.39214 106.07474,91.57668 105.98069,91.77930 105.92099,91.99457 105.89725,92.21670 100.50850,92.21670 100.50850,88.47850 100.52850,88.41038 100.58216,88.36389 100.63450,88.35250 128.82950,88.35250 Z"/> 
</g>
</g>
</g> 
</g><g id="substrate-pads" style="fill:#b5ae30; stroke:#b5ae30;" mask="url(#pads-mask)"><g style="fill-opacity: 0.0;stroke-width: 0.00000;stroke-opacity: 1;stroke-linecap: round;stroke-linejoin: round">
<g style="fill-opacity: 1.00000;stroke-width: 0.00000;stroke-opacity: 1;stroke-linecap: round;stroke-linejoin: round">
<path style="fill-opacity: 1.00000;stroke-width: 0.00000;stroke-opacity: 1;stroke-linecap: round;stroke-linejoin: round;fill-rule: evenodd" d="M 121.65000,91.40000 123.35000,91.40000 123.35000,93.10000 121.65000,93.10000 Z"/> 
<circle cx="119.96000" cy="92.25000" r="0.85000"/> 
<circle cx="117.42000" cy="92.25000" r="0.85000"/> 
<circle cx="114.88000" cy="92.25000" r="0.85000"/> 
<circle cx="112.34000" cy="92.25000" r="0.85000"/> 
<circle cx="109.80000" cy="92.25000" r="0.85000"/> 
<circle cx="107.26000" cy="92.25000" r="0.85000"/> 
</g>
<g style="fill-opacity: 1.00000;stroke-width: 0.00000;stroke-opacity: 1;stroke-linecap: round;stroke-linejoin: round">
<path style="fill-opacity: 1.00000;stroke-width: 0.00000;stroke-opacity: 1;stroke-linecap: round;stroke-linejoin: round;fill-rule: evenodd" d="M 116.55000,108.37500 117.55000,108.37500 117.55000,109.37500 116.55000,109.37500 Z"/> 
<circle cx="117.05000" cy="110.14500" r="0.50000"/> 
<circle cx="115.78000" cy="108.87500" r="0.50000"/> 
<circle cx="115.78000" cy="110.14500" r="0.50000"/> 
<circle cx="114.51000" cy="108.87500" r="0.50000"/> 
<circle cx="114.51000" cy="110.14500" r="0.50000"/> 
<circle cx="113.24000" cy="108.87500" r="0.50000"/> 
<circle cx="113.24000" cy="110.14500" r="0.50000"/> 
<circle cx="111.97000" cy="108.87500" r="0.50000"/> 
<circle cx="111.97000" cy="110.14500" r="0.50000"/> 
</g>
<g style="fill-opacity: 1.00000;stroke-width: 0.00000;stroke-opacity: 1;stroke-linecap: round;stroke-linejoin: round">
<path style="fill-opacity: 1.00000;stroke-width: 0.00000;stroke-opacity: 1;stroke-linecap: round;stroke-linejoin: round;fill-rule: evenodd" d="M 110.25000,102.50000 111.25000,102.50000 111.25000,103.50000 110.25000,103.50000 Z"/> 
<circle cx="110.75000" cy="104.27000" r="0.50000"/> 
<circle cx="112.02000" cy="103.00000" r="0.50000"/> 
<circle cx="112.02000" cy="104.27000" r="0.50000"/> 
<circle cx="113.29000" cy="103.00000" r="0.50000"/> 
<circle cx="113.29000" cy="104.27000" r="0.50000"/> 
<circle cx="114.56000" cy="103.00000" r="0.50000"/> 
<circle cx="114.56000" cy="104.27000" r="0.50000"/> 
<circle cx="115.83000" cy="103.00000" r="0.50000"/> 
<circle cx="115.83000" cy="104.27000" r="0.50000"/> 
<circle cx="117.10000" cy="103.00000" r="0.50000"/> 
<circle cx="117.10000" cy="104.27000" r="0.50000"/> 
<circle cx="118.37000" cy="103.00000" r="0.50000"/> 
<circle cx="118.37000" cy="104.27000" r="0.50000"/> 
</g>
<g style="fill-opacity: 1.00000;stroke-width: 0.00000;stroke-opacity: 1;stroke-linecap: round;stroke-linejoin: round">
<circle cx="117.75000" cy="101.25000" r="0.40000"/> 
</g>
<g style="fill-opacity: 1.00000;stroke-width: 0.00000;stroke-opacity: 1;stroke-linecap: round;stroke-linejoin: round">
<circle cx="109.00000" cy="110.00000" r="0.40000"/> 
</g>
<g style="fill-opacity: 1.00000;stroke-width: 0.00000;stroke-opacity: 1;stroke-linecap: round;stroke-linejoin: round">
<circle cx="114.50000" cy="105.81950" r="0.40000"/> 
</g>
<g style="fill-opacity: 1.00000;stroke-width: 0.00000;stroke-opacity: 1;stroke-linecap: round;stroke-linejoin: round">
<circle cx="109.00000" cy="102.75000" r="0.40000"/> 
</g>
<g style="fill-opacity: 1.00000;stroke-width: 0.00000;stroke-opacity: 1;stroke-linecap: round;stroke-linejoin: round">
<circle cx="108.75000" cy="105.00000" r="0.40000"/> 
</g>
<g style="fill-opacity: 1.00000;stroke-width: 0.00000;stroke-opacity: 1;stroke-linecap: round;stroke-linejoin: round">
<circle cx="115.34801" cy="101.25053" r="0.40000"/> 
</g>
<g style="fill-opacity: 0.0;stroke-width: 0.25000;stroke-opacity: 1;stroke-linecap: round;stroke-linejoin: round">
<path d="M117.25000 93.50000 L118.71000 93.50000 "/>
<path d="M118.71000 93.50000 L119.96000 92.25000 "/>
<path d="M116.50000 102.00000 L116.50000 94.25000 "/>
<path d="M113.02000 102.00000 L112.02000 103.00000 "/>
<path d="M116.50000 102.00000 L113.02000 102.00000 "/>
<path d="M119.96000 102.96000 L119.00000 102.00000 "/>
<path d="M119.00000 102.00000 L116.50000 102.00000 "/>
<path d="M119.96000 109.29000 L119.96000 102.96000 "/>
<path d="M116.50000 94.25000 L117.25000 93.50000 "/>
<path d="M117.05000 110.14500 L119.10500 110.14500 "/>
<path d="M119.10500 110.14500 L119.96000 109.29000 "/>
<path d="M109.00000 93.05000 L109.80000 92.25000 "/>
<path d="M114.51000 108.87500 L114.51000 105.82950 "/>
<path d="M114.51000 105.82950 L114.50000 105.81950 "/>
<path d="M109.00000 102.75000 L109.00000 93.05000 "/>
<path d="M108.75000 105.00000 L107.26000 103.51000 "/>
<path d="M115.00500 105.09500 L113.90500 105.09500 "/>
<path d="M115.83000 104.27000 L115.00500 105.09500 "/>
<path d="M107.26000 103.51000 L107.26000 92.25000 "/>
<path d="M113.25000 105.75000 L113.25000 108.86500 "/>
<path d="M113.90500 105.09500 L113.25000 105.75000 "/>
<path d="M109.75000 102.50000 L110.87781 101.37219 "/>
<path d="M109.75000 109.75000 L109.75000 102.50000 "/>
<path d="M113.03000 110.97000 L110.97000 110.97000 "/>
<path d="M112.37781 101.37219 L115.22635 101.37219 "/>
<path d="M113.24000 110.14500 L113.24000 110.76000 "/>
<path d="M111.12219 101.37219 L112.37781 101.37219 "/>
<path d="M115.22635 101.37219 L115.34801 101.25053 "/>
<path d="M112.34000 92.25000 L112.34000 101.33437 "/>
<path d="M112.34000 101.33437 L112.37781 101.37219 "/>
<path d="M110.87781 101.37219 L111.12219 101.37219 "/>
<path d="M113.24000 110.76000 L113.03000 110.97000 "/>
<path d="M110.97000 110.97000 L109.75000 109.75000 "/>
</g>
<g style="fill-opacity: 0.0;stroke-width: 0.25000;stroke-opacity: 1;stroke-linecap: round;stroke-linejoin: round">
<g style="fill-opacity: 1.00000;stroke-width: 0.00000;stroke-opacity: 1;stroke-linecap: round;stroke-linejoin: round">
<path style="fill-opacity: 1.00000;stroke-width: 0.00000;stroke-opacity: 1;stroke-linecap: round;stroke-linejoin: round;fill-rule: evenodd" d="M 128.89762,88.37250 128.94411,88.42616 128.95550,88.47850 128.95550,93.01550 128.93550,93.08362 128.88184,93.13011 128.82950,93.14150 125.91462,93.14150 125.91385,93.14150 125.91304,93.14149 125.83628,93.14102 125.81392,93.14741 125.80785,93.14915 125.79108,93.15273 125.76181,93.15692 125.75364,93.16063 125.75364,93.16063 125.73844,93.16755 125.72091,93.17400 125.69623,93.18105 125.68863,93.18584 125.68863,93.18584 125.67122,93.19683 125.65614,93.20497 125.62922,93.21721 125.62242,93.22307 125.60976,93.23397 125.59476,93.24507 125.57304,93.25878 125.56710,93.26550 125.56710,93.26550 125.55347,93.28094 125.54128,93.29298 125.52567,93.30643 125.52567,93.30643 125.51887,93.31229 125.51399,93.31982 125.51399,93.31982 125.50491,93.33383 125.49361,93.34871 125.48257,93.36122 125.47662,93.36795 125.47031,93.38139 125.46406,93.39471 125.45574,93.40969 125.44453,93.42698 125.44453,93.42699 125.43965,93.43451 125.43708,93.44311 125.43708,93.44311 125.43229,93.45912 125.42563,93.47656 125.41853,93.49168 125.41472,93.49980 125.41334,93.50867 125.41334,93.50867 125.41017,93.52902 125.40639,93.54573 125.40048,93.56547 125.40048,93.56547 125.39791,93.57407 125.39772,93.60512 125.39770,93.60850 125.39767,93.60929 125.39750,93.61039 125.39750,93.64138 125.39750,93.64215 125.39702,93.71972 125.39741,93.72106 125.39750,93.72241 125.39750,99.99138 125.39750,99.99215 125.39702,100.06972 125.39949,100.07835 125.40515,100.09815 125.40873,100.11491 125.41292,100.14419 125.41663,100.15236 125.41663,100.15236 125.42355,100.16756 125.43000,100.18509 125.43705,100.20977 125.44184,100.21737 125.44184,100.21737 125.45283,100.23478 125.46097,100.24986 125.47321,100.27678 125.47907,100.28358 125.48997,100.29623 125.50107,100.31124 125.51478,100.33296 125.52150,100.33890 125.52150,100.33890 125.53694,100.35253 125.54898,100.36472 125.56243,100.38033 125.56243,100.38033 125.56829,100.38713 125.57582,100.39201 125.57582,100.39201 125.58983,100.40109 125.60471,100.41239 125.61061,100.41760 125.62395,100.42938 125.65071,100.44194 125.66569,100.45026 125.68298,100.46147 125.68299,100.46147 125.69051,100.46635 125.69911,100.46892 125.69911,100.46892 125.71512,100.47371 125.73256,100.48037 125.74768,100.48747 125.74768,100.48747 125.75580,100.49128 125.76467,100.49266 125.76467,100.49266 125.76735,100.49308 125.78502,100.49583 125.80173,100.49961 125.82147,100.50551 125.82147,100.50552 125.83007,100.50809 125.83904,100.50814 125.83904,100.50814 125.84910,100.50820 125.86451,100.50830 125.86529,100.50833 125.86639,100.50850 125.89738,100.50850 125.89815,100.50850 125.97178,100.50895 125.97179,100.50895 125.97572,100.50898 125.97706,100.50859 125.97841,100.50850 128.82550,100.50850 128.89362,100.52850 128.94011,100.58216 128.95150,100.63450 128.95150,111.93850 128.93150,112.00662 128.87784,112.05311 128.82550,112.06450 100.63450,112.06450 100.56638,112.04450 100.51989,111.99084 100.50850,111.93850 100.50850,100.63450 100.52850,100.56638 100.58216,100.51989 100.63450,100.50850 103.54738,100.50850 103.54815,100.50850 103.62572,100.50898 103.65415,100.50085 103.67091,100.49727 103.67175,100.49715 103.70019,100.49308 103.72356,100.48245 103.74109,100.47600 103.76577,100.46895 103.77336,100.46416 103.77337,100.46416 103.79078,100.45317 103.80586,100.44503 103.83278,100.43279 103.85223,100.41603 103.86724,100.40493 103.88896,100.39122 103.89490,100.38450 103.89490,100.38450 103.90853,100.36906 103.92072,100.35702 103.93633,100.34357 103.93633,100.34357 103.94313,100.33771 103.95709,100.31616 103.96838,100.30129 103.97943,100.28878 103.97943,100.28878 103.98538,100.28205 103.99794,100.25529 104.00626,100.24031 104.01747,100.22302 104.01747,100.22301 104.02235,100.21549 104.02492,100.20689 104.02492,100.20689 104.02971,100.19088 104.03637,100.17344 104.04347,100.15832 104.04347,100.15832 104.04728,100.15020 104.05183,100.12098 104.05561,100.10427 104.06151,100.08453 104.06152,100.08453 104.06409,100.07593 104.06430,100.04149 104.06433,100.04071 104.06450,100.03961 104.06450,100.00862 104.06450,100.00785 104.06495,99.93421 104.06495,99.93421 104.06498,99.93028 104.06459,99.92893 104.06450,99.92759 104.06450,93.65862 104.06450,93.65785 104.06460,93.64138 104.06498,93.58028 104.05685,93.55185 104.05327,93.53508 104.05240,93.52902 104.04908,93.50581 104.03845,93.48244 104.03200,93.46491 104.03035,93.45912 104.02495,93.44023 104.02016,93.43263 104.00917,93.41522 104.00103,93.40013 103.99856,93.39471 103.98879,93.37322 103.97203,93.35376 103.96093,93.33876 103.94722,93.31704 103.94050,93.31110 103.94050,93.31110 103.92506,93.29747 103.91302,93.28528 103.89957,93.26967 103.89957,93.26967 103.89371,93.26287 103.88001,93.25399 103.87216,93.24891 103.85729,93.23761 103.84478,93.22657 103.84478,93.22657 103.83805,93.22062 103.81129,93.20806 103.79631,93.19974 103.77902,93.18853 103.77901,93.18853 103.77148,93.18365 103.76289,93.18108 103.76289,93.18108 103.74688,93.17629 103.72944,93.16963 103.71432,93.16253 103.71432,93.16253 103.70620,93.15872 103.69733,93.15734 103.69733,93.15734 103.68648,93.15565 103.67698,93.15417 103.66027,93.15039 103.64053,93.14448 103.64053,93.14448 103.63193,93.14191 103.62296,93.14186 103.62296,93.14186 103.61290,93.14180 103.59749,93.14170 103.59671,93.14167 103.59561,93.14150 103.56462,93.14150 103.56385,93.14150 103.49021,93.14105 103.49021,93.14105 103.48628,93.14102 103.48493,93.14141 103.48359,93.14150 100.63450,93.14150 100.56638,93.12150 100.51989,93.06784 100.50850,93.01550 100.50850,92.21670 105.89725,92.21670 105.91011,92.43971 105.91125,92.44476 105.91125,92.44477 105.92561,92.50847 105.95922,92.65764 106.04327,92.86462 106.09494,92.94894 106.15729,93.05069 106.15999,93.05509 106.30625,93.22394 106.42174,93.31982 106.46769,93.35797 106.47813,93.36663 106.56127,93.41522 106.56407,93.41685 106.61279,93.46849 106.62650,93.52564 106.62650,103.43123 106.62597,103.44242 106.62430,103.44991 106.62455,103.45783 106.62455,103.45784 106.62644,103.51799 106.62650,103.52195 106.62650,103.54986 106.62700,103.55379 106.62700,103.55379 106.62700,103.55386 106.62794,103.56569 106.62933,103.60989 106.63231,103.62017 106.63498,103.62934 106.63899,103.64870 106.64153,103.66880 106.64444,103.67617 106.64444,103.67617 106.65780,103.70991 106.66165,103.72114 106.67177,103.75598 106.67398,103.76359 106.67802,103.77041 106.67802,103.77042 106.68429,103.78103 106.69299,103.79878 106.70045,103.81762 106.70511,103.82403 106.70511,103.82403 106.72644,103.85339 106.73295,103.86331 106.75546,103.90136 106.76978,103.91568 106.78262,103.93072 106.79453,103.94711 106.80063,103.95216 106.82860,103.97530 106.83738,103.98329 107.80288,104.94878 107.83690,105.01109 107.83909,105.02470 107.85646,105.18993 107.91547,105.37156 107.91878,105.37728 107.91878,105.37728 107.92753,105.39243 108.01096,105.53694 108.01538,105.54185 108.01538,105.54185 108.13074,105.66997 108.13875,105.67887 108.15438,105.69022 108.28596,105.78582 108.29325,105.79112 108.29928,105.79380 108.29928,105.79380 108.46168,105.86611 108.46771,105.86879 108.56111,105.88865 108.64806,105.90713 108.64806,105.90713 108.65451,105.90850 108.84549,105.90850 108.85194,105.90713 108.85194,105.90713 108.96430,105.88325 109.03509,105.88865 109.09173,105.93146 109.11622,105.99810 109.11650,106.00649 109.11650,109.67123 109.11597,109.68242 109.11430,109.68991 109.11455,109.69783 109.11455,109.69784 109.11644,109.75799 109.11650,109.76194 109.11650,109.78986 109.11700,109.79379 109.11700,109.79379 109.11700,109.79386 109.11794,109.80569 109.11933,109.84989 109.12364,109.86474 109.12498,109.86934 109.12899,109.88870 109.13153,109.90880 109.13444,109.91617 109.13444,109.91617 109.14780,109.94991 109.15165,109.96114 109.16398,110.00359 109.16801,110.01041 109.16802,110.01042 109.17429,110.02103 109.18299,110.03878 109.19045,110.05762 109.19511,110.06403 109.19511,110.06403 109.21644,110.09339 109.22295,110.10331 109.23924,110.13085 109.24546,110.14136 109.25978,110.15568 109.27262,110.17072 109.28453,110.18711 109.29063,110.19216 109.31860,110.21530 109.32738,110.22329 110.46634,111.36225 110.47389,111.37054 110.47800,111.37702 110.48378,111.38244 110.52767,111.42366 110.53051,111.42641 110.55023,111.44613 110.55335,111.44856 110.55336,111.44856 110.55342,111.44861 110.56244,111.45632 110.59468,111.48659 110.60163,111.49040 110.60163,111.49041 110.61243,111.49635 110.62896,111.50720 110.63870,111.51476 110.63870,111.51476 110.64496,111.51961 110.68554,111.53717 110.69619,111.54239 110.72098,111.55602 110.73494,111.56369 110.74262,111.56567 110.74262,111.56567 110.75456,111.56873 110.77327,111.57514 110.79185,111.58318 110.79968,111.58442 110.79969,111.58442 110.83552,111.59010 110.84714,111.59250 110.87896,111.60067 110.88997,111.60350 110.91022,111.60350 110.92993,111.60505 110.94994,111.60822 110.95783,111.60747 110.97658,111.60570 110.99396,111.60406 111.00582,111.60350 112.95123,111.60350 112.96242,111.60403 112.96991,111.60570 112.97783,111.60545 112.97784,111.60545 113.03799,111.60356 113.04194,111.60350 113.06986,111.60350 113.07379,111.60300 113.07386,111.60299 113.08569,111.60206 113.11795,111.60105 113.12197,111.60092 113.12989,111.60067 113.14934,111.59502 113.16870,111.59101 113.18093,111.58947 113.18093,111.58947 113.18880,111.58847 113.19617,111.58555 113.19617,111.58555 113.22991,111.57220 113.24114,111.56835 113.27598,111.55823 113.27598,111.55823 113.28359,111.55602 113.29041,111.55199 113.29042,111.55198 113.30103,111.54571 113.31878,111.53701 113.33762,111.52955 113.37339,111.50356 113.38331,111.49705 113.41454,111.47858 113.41454,111.47858 113.42136,111.47454 113.43569,111.46022 113.45071,111.44738 113.46711,111.43547 113.49529,111.40140 113.50328,111.39262 113.63226,111.26365 113.64054,111.25611 113.64702,111.25200 113.69364,111.20235 113.69640,111.19951 113.71613,111.17977 113.71861,111.17657 113.72632,111.16755 113.75116,111.14110 113.75659,111.13532 113.76040,111.12837 113.76041,111.12837 113.76635,111.11757 113.77720,111.10105 113.78476,111.09130 113.78961,111.08504 113.79276,111.07777 113.79276,111.07777 113.79949,111.06221 113.84490,111.00763 113.91261,110.98627 113.97660,111.00226 114.09891,111.07062 114.09891,111.07062 114.10429,111.07362 114.29239,111.13474 114.48878,111.15816 114.49491,111.15769 114.49491,111.15769 114.67983,111.14346 114.67983,111.14346 114.68597,111.14298 114.87646,111.08980 114.88197,111.08702 114.88197,111.08702 115.04749,111.00341 115.04749,111.00340 115.05300,111.00062 115.05785,110.99683 115.05786,110.99683 115.06655,110.99004 115.13254,110.96386 115.20559,110.97934 115.37429,111.07362 115.56239,111.13474 115.75878,111.15816 115.76491,111.15769 115.76491,111.15769 115.94983,111.14346 115.94983,111.14346 115.95597,111.14298 116.14646,111.08980 116.15197,111.08702 116.15197,111.08702 116.31749,111.00341 116.31749,111.00340 116.32300,111.00062 116.32785,110.99683 116.32786,110.99683 116.33655,110.99004 116.40254,110.96386 116.47559,110.97934 116.64429,111.07362 116.83239,111.13474 117.02878,111.15816 117.03491,111.15769 117.03491,111.15769 117.21983,111.14346 117.21983,111.14346 117.22597,111.14298 117.41646,111.08980 117.42197,111.08702 117.42197,111.08702 117.58749,111.00340 117.58750,111.00340 117.59300,111.00062 117.74885,110.87886 117.79778,110.82217 117.85743,110.78367 117.89316,110.77850 119.02623,110.77850 119.03742,110.77903 119.04491,110.78070 119.05283,110.78045 119.05284,110.78045 119.11299,110.77856 119.11695,110.77850 119.14486,110.77850 119.14879,110.77800 119.14886,110.77799 119.16069,110.77706 119.19295,110.77605 119.19697,110.77592 119.20489,110.77567 119.22434,110.77002 119.24370,110.76601 119.25593,110.76447 119.25593,110.76447 119.26380,110.76347 119.27117,110.76055 119.27117,110.76055 119.30491,110.74720 119.31614,110.74335 119.35098,110.73323 119.35098,110.73323 119.35859,110.73102 119.36541,110.72698 119.36542,110.72698 119.37603,110.72071 119.39378,110.71201 119.41262,110.70455 119.44839,110.67856 119.45831,110.67205 119.48953,110.65358 119.48954,110.65358 119.49636,110.64954 119.51068,110.63522 119.52572,110.62238 119.53569,110.61513 119.54211,110.61047 119.57030,110.57639 119.57829,110.56762 120.35225,109.79366 120.36054,109.78611 120.36702,109.78200 120.41366,109.73233 120.41641,109.72949 120.43613,109.70977 120.43861,109.70658 120.44632,109.69755 120.47116,109.67110 120.47659,109.66532 120.48041,109.65837 120.48635,109.64757 120.49720,109.63104 120.50476,109.62130 120.50476,109.62130 120.50961,109.61504 120.52717,109.57446 120.53239,109.56381 120.54988,109.53201 120.54988,109.53201 120.55369,109.52506 120.55873,109.50544 120.56514,109.48673 120.57003,109.47542 120.57003,109.47542 120.57318,109.46814 120.57442,109.46032 120.57442,109.46031 120.58010,109.42448 120.58250,109.41286 120.59153,109.37771 120.59153,109.37771 120.59350,109.37003 120.59350,109.34978 120.59505,109.33006 120.59698,109.31789 120.59822,109.31006 120.59406,109.26604 120.59350,109.25418 120.59350,103.03877 120.59403,103.02758 120.59570,103.02009 120.59507,103.00000 120.59356,102.95201 120.59350,102.94805 120.59350,102.92014 120.59299,102.91614 120.59206,102.90430 120.59092,102.86803 120.59067,102.86011 120.58502,102.84066 120.58101,102.82130 120.57947,102.80907 120.57947,102.80907 120.57847,102.80120 120.57376,102.78931 120.56220,102.76009 120.55835,102.74886 120.54823,102.71402 120.54823,102.71402 120.54602,102.70641 120.54198,102.69959 120.54198,102.69958 120.53571,102.68897 120.52701,102.67122 120.51955,102.65238 120.49356,102.61661 120.48705,102.60669 120.46858,102.57546 120.46858,102.57546 120.46454,102.56864 120.45022,102.55432 120.43738,102.53928 120.43013,102.52931 120.42547,102.52289 120.41937,102.51784 120.41936,102.51784 120.39140,102.49471 120.38262,102.48672 119.50365,101.60774 119.49611,101.59946 119.49200,101.59298 119.44235,101.54636 119.43951,101.54360 119.41977,101.52387 119.41657,101.52138 119.40755,101.51368 119.39884,101.50550 119.37532,101.48341 119.36838,101.47959 119.36837,101.47959 119.35757,101.47365 119.34105,101.46280 119.34058,101.46244 119.32504,101.45039 119.31777,101.44724 119.31777,101.44724 119.28446,101.43283 119.27381,101.42761 119.23506,101.40630 119.21544,101.40127 119.19673,101.39486 119.18542,101.38997 119.18542,101.38997 119.17815,101.38682 119.17032,101.38558 119.17031,101.38558 119.13448,101.37990 119.12286,101.37749 119.08771,101.36847 119.08771,101.36847 119.08003,101.36650 119.05978,101.36650 119.04006,101.36495 119.02789,101.36302 119.02006,101.36178 119.01216,101.36253 118.97604,101.36594 118.96418,101.36650 117.25950,101.36650 117.19138,101.34650 117.14489,101.29284 117.13350,101.24050 117.13350,94.56459 117.15350,94.49647 117.17040,94.47550 117.47550,94.17041 117.53781,94.13638 117.56459,94.13350 118.63123,94.13350 118.64242,94.13403 118.64991,94.13570 118.65783,94.13545 118.65784,94.13545 118.71799,94.13356 118.72194,94.13350 118.74986,94.13350 118.75379,94.13300 118.75386,94.13299 118.76569,94.13206 118.79795,94.13105 118.80197,94.13092 118.80989,94.13067 118.82934,94.12502 118.84870,94.12101 118.86093,94.11947 118.86093,94.11947 118.86880,94.11847 118.87617,94.11556 118.87617,94.11556 118.90991,94.10220 118.92114,94.09835 118.95598,94.08823 118.95598,94.08823 118.96359,94.08602 118.97041,94.08198 118.97042,94.08198 118.98103,94.07571 118.99878,94.06701 119.01762,94.05955 119.05339,94.03356 119.06331,94.02705 119.09453,94.00858 119.09454,94.00858 119.10136,94.00454 119.11568,93.99022 119.13072,93.97738 119.13234,93.97620 119.14711,93.96547 119.17530,93.93139 119.18329,93.92262 119.50455,93.60135 119.56686,93.56733 119.61876,93.56698 119.79860,93.60357 119.80377,93.60376 119.80377,93.60376 120.01667,93.61156 120.01668,93.61156 120.02184,93.61175 120.02696,93.61110 120.02696,93.61110 120.23829,93.58402 120.23829,93.58402 120.24342,93.58337 120.27442,93.57407 120.45243,93.52066 120.45243,93.52066 120.45738,93.51917 120.65799,93.42090 120.83986,93.29117 120.84367,93.28738 120.94848,93.18293 121.01085,93.14902 121.08166,93.15420 121.13842,93.19685 121.15540,93.22795 121.19668,93.33805 121.20521,93.35365 121.28171,93.45572 121.29428,93.46828 121.39635,93.54479 121.41195,93.55332 121.53239,93.59848 121.54765,93.60210 121.59851,93.60763 121.60533,93.60800 122.22789,93.60800 122.24312,93.60352 122.24433,93.60213 122.24600,93.59445 122.24600,93.58988 122.75400,93.58988 122.75847,93.60512 122.75986,93.60633 122.76755,93.60800 123.39467,93.60800 123.40149,93.60763 123.45235,93.60210 123.46760,93.59848 123.58805,93.55332 123.60365,93.54479 123.70572,93.46828 123.71828,93.45572 123.79479,93.35365 123.80332,93.33805 123.84848,93.21761 123.85210,93.20235 123.85763,93.15149 123.85800,93.14467 123.85800,92.52211 123.85352,92.50688 123.85213,92.50567 123.84445,92.50400 122.77211,92.50400 122.75688,92.50847 122.75567,92.50986 122.75400,92.51755 122.75400,93.58988 122.24600,93.58988 122.24600,91.97789 122.75400,91.97789 122.75847,91.99312 122.75986,91.99433 122.76755,91.99600 123.83988,91.99600 123.85512,91.99152 123.85633,91.99013 123.85800,91.98245 123.85800,91.35533 123.85763,91.34851 123.85210,91.29765 123.84848,91.28240 123.80332,91.16195 123.79479,91.14635 123.71828,91.04428 123.70572,91.03171 123.60365,90.95521 123.58805,90.94668 123.46761,90.90152 123.45235,90.89789 123.40149,90.89237 123.39467,90.89200 122.77211,90.89200 122.75688,90.89647 122.75567,90.89786 122.75400,90.90555 122.75400,91.97789 122.24600,91.97789 122.24600,90.91012 122.24152,90.89488 122.24013,90.89367 122.23245,90.89200 121.60533,90.89200 121.59851,90.89237 121.54765,90.89789 121.53240,90.90152 121.41195,90.94668 121.39635,90.95521 121.29428,91.03171 121.28171,91.04428 121.20521,91.14635 121.19668,91.16195 121.15530,91.27232 121.11265,91.32909 121.04609,91.35379 120.97674,91.33858 120.94412,91.31289 120.89315,91.25688 120.89314,91.25687 120.88967,91.25305 120.88562,91.24985 120.88562,91.24985 120.71841,91.11780 120.71841,91.11780 120.71436,91.11460 120.51879,91.00664 120.51392,91.00491 120.51392,91.00491 120.31309,90.93379 120.31308,90.93379 120.30821,90.93207 120.30312,90.93116 120.30312,90.93116 120.09337,90.89380 120.09337,90.89380 120.08828,90.89289 120.01445,90.89199 119.87008,90.89023 119.87008,90.89023 119.86491,90.89016 119.64409,90.92395 119.43176,90.99336 119.23361,91.09651 119.22947,91.09961 119.22947,91.09961 119.14645,91.16195 119.05496,91.23063 118.90063,91.39214 118.79320,91.54962 118.73829,91.59462 118.66777,91.60279 118.60402,91.57154 118.58332,91.54705 118.50282,91.42262 118.50282,91.42261 118.50001,91.41828 118.34967,91.25305 118.34562,91.24985 118.34561,91.24985 118.17841,91.11780 118.17841,91.11780 118.17436,91.11460 117.97879,91.00664 117.97392,91.00491 117.97392,91.00491 117.77309,90.93379 117.77308,90.93379 117.76821,90.93207 117.76312,90.93116 117.76312,90.93116 117.55337,90.89380 117.55337,90.89380 117.54828,90.89289 117.47445,90.89199 117.33008,90.89023 117.33008,90.89023 117.32491,90.89016 117.10409,90.92395 116.89176,90.99336 116.69361,91.09651 116.68947,91.09961 116.68947,91.09961 116.60645,91.16195 116.51496,91.23063 116.36063,91.39214 116.25320,91.54962 116.19829,91.59462 116.12777,91.60279 116.06402,91.57154 116.04332,91.54705 115.96282,91.42262 115.96282,91.42261 115.96001,91.41828 115.80967,91.25305 115.80562,91.24985 115.80561,91.24985 115.63841,91.11780 115.63841,91.11780 115.63436,91.11460 115.43879,91.00664 115.43392,91.00491 115.43392,91.00491 115.23309,90.93379 115.23308,90.93379 115.22821,90.93207 115.22312,90.93116 115.22312,90.93116 115.01337,90.89380 115.01337,90.89380 115.00828,90.89289 114.93445,90.89199 114.79008,90.89023 114.79008,90.89023 114.78491,90.89016 114.56409,90.92395 114.35176,90.99336 114.15361,91.09651 114.14947,91.09961 114.14947,91.09961 114.06645,91.16195 113.97496,91.23063 113.82063,91.39214 113.71320,91.54962 113.65829,91.59462 113.58777,91.60279 113.52402,91.57154 113.50332,91.54705 113.42282,91.42262 113.42282,91.42261 113.42001,91.41828 113.26967,91.25305 113.26562,91.24985 113.26561,91.24985 113.09841,91.11780 113.09841,91.11780 113.09436,91.11460 112.89879,91.00664 112.89392,91.00491 112.89392,91.00491 112.69309,90.93379 112.69308,90.93379 112.68821,90.93207 112.68312,90.93116 112.68312,90.93116 112.47337,90.89380 112.47337,90.89380 112.46828,90.89289 112.39445,90.89199 112.25008,90.89023 112.25008,90.89023 112.24491,90.89016 112.02409,90.92395 111.81176,90.99336 111.61361,91.09651 111.60947,91.09961 111.60947,91.09961 111.52645,91.16195 111.43496,91.23063 111.28063,91.39214 111.17320,91.54962 111.11829,91.59462 111.04777,91.60279 110.98402,91.57154 110.96332,91.54705 110.88282,91.42262 110.88282,91.42261 110.88001,91.41828 110.72967,91.25305 110.72562,91.24985 110.72561,91.24985 110.55841,91.11780 110.55841,91.11780 110.55436,91.11460 110.35879,91.00664 110.35392,91.00491 110.35392,91.00491 110.15309,90.93379 110.15308,90.93379 110.14821,90.93207 110.14312,90.93116 110.14312,90.93116 109.93337,90.89380 109.93337,90.89380 109.92828,90.89289 109.85445,90.89199 109.71008,90.89023 109.71008,90.89023 109.70491,90.89016 109.48409,90.92395 109.27176,90.99336 109.07361,91.09651 109.06947,91.09961 109.06947,91.09961 108.98645,91.16195 108.89496,91.23063 108.74063,91.39214 108.63320,91.54962 108.57829,91.59462 108.50777,91.60279 108.44402,91.57154 108.42332,91.54705 108.34282,91.42262 108.34282,91.42261 108.34001,91.41828 108.18967,91.25305 108.18562,91.24985 108.18561,91.24985 108.01841,91.11780 108.01841,91.11780 108.01436,91.11460 107.81879,91.00664 107.81392,91.00491 107.81392,91.00491 107.61309,90.93379 107.61308,90.93379 107.60821,90.93207 107.60312,90.93116 107.60312,90.93116 107.39337,90.89380 107.39337,90.89380 107.38828,90.89289 107.31445,90.89199 107.17008,90.89023 107.17008,90.89023 107.16491,90.89016 106.94409,90.92395 106.73176,90.99336 106.53361,91.09651 106.52947,91.09961 106.52947,91.09961 106.44645,91.16195 106.35496,91.23063 106.20063,91.39214 106.07474,91.57668 105.98069,91.77930 105.92099,91.99457 105.89725,92.21670 100.50850,92.21670 100.50850,88.47850 100.52850,88.41038 100.58216,88.36389 100.63450,88.35250 128.82950,88.35250 Z"/> 
</g>
</g>
</g> 
</g><g id="substrate-silk" style="fill:#f0f0f0; stroke:#f0f0f0;" mask="url(#pads-mask-silkscreen)"><g style="fill-opacity: 0.0;stroke-width: 0.18750;stroke-opacity: 1;stroke-linecap: round;stroke-linejoin: round">
<g transform="rotate(90.000000 120.25000 89.25000)">
<text x="120.25000" y="89.62500" transform="scale(-1 1) translate(-240.500000 0)" textLength="2.62679" font-size="1.00000" lengthAdjust="spacingAndGlyphs" text-anchor="middle" opacity="0">+5v</text>
</g>
<g class="stroked-text"><desc>+5v</desc>
<path d="M120.19850 90.17857 L120.19850 89.60714 "/>
<path d="M119.91278 89.89286 L120.48421 89.89286 "/>
<path d="M120.66278 88.89286 L120.66278 89.25000 "/>
<path d="M120.66278 89.25000 L120.30564 89.28571 "/>
<path d="M120.30564 89.28571 L120.34136 89.25000 "/>
<path d="M120.34136 89.25000 L120.37707 89.17857 "/>
<path d="M120.37707 89.17857 L120.37707 89.00000 "/>
<path d="M120.37707 89.00000 L120.34136 88.92857 "/>
<path d="M120.34136 88.92857 L120.30564 88.89286 "/>
<path d="M120.30564 88.89286 L120.23421 88.85714 "/>
<path d="M120.23421 88.85714 L120.05564 88.85714 "/>
<path d="M120.05564 88.85714 L119.98421 88.89286 "/>
<path d="M119.98421 88.89286 L119.94850 88.92857 "/>
<path d="M119.94850 88.92857 L119.91278 89.00000 "/>
<path d="M119.91278 89.00000 L119.91278 89.17857 "/>
<path d="M119.91278 89.17857 L119.94850 89.25000 "/>
<path d="M119.94850 89.25000 L119.98421 89.28571 "/>
<path d="M120.41278 88.60714 L119.91278 88.42857 "/>
<path d="M119.91278 88.42857 L120.41278 88.25000 "/>
</g><g transform="rotate(90.000000 122.50000 89.25000)">
<text x="122.50000" y="89.62500" transform="scale(-1 1) translate(-245.000000 0)" textLength="2.69821" font-size="1.00000" lengthAdjust="spacingAndGlyphs" text-anchor="middle" opacity="0">GND</text>
</g>
<g class="stroked-text"><desc>GND</desc>
<path d="M122.87707 89.82143 L122.91278 89.89286 "/>
<path d="M122.91278 89.89286 L122.91278 90.00000 "/>
<path d="M122.91278 90.00000 L122.87707 90.10714 "/>
<path d="M122.87707 90.10714 L122.80564 90.17857 "/>
<path d="M122.80564 90.17857 L122.73421 90.21428 "/>
<path d="M122.73421 90.21428 L122.59136 90.25000 "/>
<path d="M122.59136 90.25000 L122.48421 90.25000 "/>
<path d="M122.48421 90.25000 L122.34136 90.21428 "/>
<path d="M122.34136 90.21428 L122.26993 90.17857 "/>
<path d="M122.26993 90.17857 L122.19850 90.10714 "/>
<path d="M122.19850 90.10714 L122.16278 90.00000 "/>
<path d="M122.16278 90.00000 L122.16278 89.92857 "/>
<path d="M122.16278 89.92857 L122.19850 89.82143 "/>
<path d="M122.19850 89.82143 L122.23421 89.78571 "/>
<path d="M122.23421 89.78571 L122.48421 89.78571 "/>
<path d="M122.48421 89.78571 L122.48421 89.92857 "/>
<path d="M122.16278 89.46428 L122.91278 89.46428 "/>
<path d="M122.91278 89.46428 L122.16278 89.03571 "/>
<path d="M122.16278 89.03571 L122.91278 89.03571 "/>
<path d="M122.16278 88.67857 L122.91278 88.67857 "/>
<path d="M122.91278 88.67857 L122.91278 88.50000 "/>
<path d="M122.91278 88.50000 L122.87707 88.39286 "/>
<path d="M122.87707 88.39286 L122.80564 88.32143 "/>
<path d="M122.80564 88.32143 L122.73421 88.28571 "/>
<path d="M122.73421 88.28571 L122.59136 88.25000 "/>
<path d="M122.59136 88.25000 L122.48421 88.25000 "/>
<path d="M122.48421 88.25000 L122.34136 88.28571 "/>
<path d="M122.34136 88.28571 L122.26993 88.32143 "/>
<path d="M122.26993 88.32143 L122.19850 88.39286 "/>
<path d="M122.19850 88.39286 L122.16278 88.50000 "/>
<path d="M122.16278 88.50000 L122.16278 88.67857 "/>
</g><g transform="rotate(90.000000 112.25000 89.50000)">
<text x="112.25000" y="89.87500" transform="scale(-1 1) translate(-224.500000 0)" textLength="2.48393" font-size="1.00000" lengthAdjust="spacingAndGlyphs" text-anchor="middle" opacity="0">RLS</text>
</g>
<g class="stroked-text"><desc>RLS</desc>
<path d="M111.91278 89.92857 L112.26993 90.17857 "/>
<path d="M111.91278 90.35714 L112.66278 90.35714 "/>
<path d="M112.66278 90.35714 L112.66278 90.07143 "/>
<path d="M112.66278 90.07143 L112.62707 90.00000 "/>
<path d="M112.62707 90.00000 L112.59136 89.96428 "/>
<path d="M112.59136 89.96428 L112.51993 89.92857 "/>
<path d="M112.51993 89.92857 L112.41278 89.92857 "/>
<path d="M112.41278 89.92857 L112.34136 89.96428 "/>
<path d="M112.34136 89.96428 L112.30564 90.00000 "/>
<path d="M112.30564 90.00000 L112.26993 90.07143 "/>
<path d="M112.26993 90.07143 L112.26993 90.35714 "/>
<path d="M111.91278 89.25000 L111.91278 89.60714 "/>
<path d="M111.91278 89.60714 L112.66278 89.60714 "/>
<path d="M111.94850 89.03571 L111.91278 88.92857 "/>
<path d="M111.91278 88.92857 L111.91278 88.75000 "/>
<path d="M111.91278 88.75000 L111.94850 88.67857 "/>
<path d="M111.94850 88.67857 L111.98421 88.64286 "/>
<path d="M111.98421 88.64286 L112.05564 88.60714 "/>
<path d="M112.05564 88.60714 L112.12707 88.60714 "/>
<path d="M112.12707 88.60714 L112.19850 88.64286 "/>
<path d="M112.19850 88.64286 L112.23421 88.67857 "/>
<path d="M112.23421 88.67857 L112.26993 88.75000 "/>
<path d="M112.26993 88.75000 L112.30564 88.89286 "/>
<path d="M112.30564 88.89286 L112.34136 88.96428 "/>
<path d="M112.34136 88.96428 L112.37707 89.00000 "/>
<path d="M112.37707 89.00000 L112.44850 89.03571 "/>
<path d="M112.44850 89.03571 L112.51993 89.03571 "/>
<path d="M112.51993 89.03571 L112.59136 89.00000 "/>
<path d="M112.59136 89.00000 L112.62707 88.96428 "/>
<path d="M112.62707 88.96428 L112.66278 88.89286 "/>
<path d="M112.66278 88.89286 L112.66278 88.71428 "/>
<path d="M112.66278 88.71428 L112.62707 88.60714 "/>
</g><g transform="rotate(90.000000 117.25000 89.25000)">
<text x="117.25000" y="89.62500" transform="scale(-1 1) translate(-234.500000 0)" textLength="2.87679" font-size="1.00000" lengthAdjust="spacingAndGlyphs" text-anchor="middle" opacity="0">PWM</text>
</g>
<g class="stroked-text"><desc>PWM</desc>
<path d="M116.91278 90.30357 L117.66278 90.30357 "/>
<path d="M117.66278 90.30357 L117.66278 90.01786 "/>
<path d="M117.66278 90.01786 L117.62707 89.94643 "/>
<path d="M117.62707 89.94643 L117.59136 89.91071 "/>
<path d="M117.59136 89.91071 L117.51993 89.87500 "/>
<path d="M117.51993 89.87500 L117.41278 89.87500 "/>
<path d="M117.41278 89.87500 L117.34136 89.91071 "/>
<path d="M117.34136 89.91071 L117.30564 89.94643 "/>
<path d="M117.30564 89.94643 L117.26993 90.01786 "/>
<path d="M117.26993 90.01786 L117.26993 90.30357 "/>
<path d="M117.66278 89.62500 L116.91278 89.44643 "/>
<path d="M116.91278 89.44643 L117.44850 89.30357 "/>
<path d="M117.44850 89.30357 L116.91278 89.16071 "/>
<path d="M116.91278 89.16071 L117.66278 88.98214 "/>
<path d="M116.91278 88.69643 L117.66278 88.69643 "/>
<path d="M117.66278 88.69643 L117.12707 88.44643 "/>
<path d="M117.12707 88.44643 L117.66278 88.19643 "/>
<path d="M117.66278 88.19643 L116.91278 88.19643 "/>
</g><g transform="rotate(90.000000 114.75000 89.50000)">
<text x="114.75000" y="89.87500" transform="scale(-1 1) translate(-229.500000 0)" textLength="2.37679" font-size="1.00000" lengthAdjust="spacingAndGlyphs" text-anchor="middle" opacity="0">FLS</text>
</g>
<g class="stroked-text"><desc>FLS</desc>
<path d="M114.80564 90.05357 L114.80564 90.30357 "/>
<path d="M114.41278 90.30357 L115.16278 90.30357 "/>
<path d="M115.16278 90.30357 L115.16278 89.94643 "/>
<path d="M114.41278 89.30357 L114.41278 89.66071 "/>
<path d="M114.41278 89.66071 L115.16278 89.66071 "/>
<path d="M114.44850 89.08928 L114.41278 88.98214 "/>
<path d="M114.41278 88.98214 L114.41278 88.80357 "/>
<path d="M114.41278 88.80357 L114.44850 88.73214 "/>
<path d="M114.44850 88.73214 L114.48421 88.69643 "/>
<path d="M114.48421 88.69643 L114.55564 88.66071 "/>
<path d="M114.55564 88.66071 L114.62707 88.66071 "/>
<path d="M114.62707 88.66071 L114.69850 88.69643 "/>
<path d="M114.69850 88.69643 L114.73421 88.73214 "/>
<path d="M114.73421 88.73214 L114.76993 88.80357 "/>
<path d="M114.76993 88.80357 L114.80564 88.94643 "/>
<path d="M114.80564 88.94643 L114.84136 89.01786 "/>
<path d="M114.84136 89.01786 L114.87707 89.05357 "/>
<path d="M114.87707 89.05357 L114.94850 89.08928 "/>
<path d="M114.94850 89.08928 L115.01993 89.08928 "/>
<path d="M115.01993 89.08928 L115.09136 89.05357 "/>
<path d="M115.09136 89.05357 L115.12707 89.01786 "/>
<path d="M115.12707 89.01786 L115.16278 88.94643 "/>
<path d="M115.16278 88.94643 L115.16278 88.76786 "/>
<path d="M115.16278 88.76786 L115.12707 88.66071 "/>
</g><g transform="rotate(90.000000 107.25000 89.75000)">
<text x="107.25000" y="90.12500" transform="scale(-1 1) translate(-214.500000 0)" textLength="1.84107" font-size="1.00000" lengthAdjust="spacingAndGlyphs" text-anchor="middle" opacity="0">QA</text>
</g>
<g class="stroked-text"><desc>QA</desc>
<path d="M106.84136 89.78571 L106.87707 89.85714 "/>
<path d="M106.87707 89.85714 L106.94850 89.92857 "/>
<path d="M106.94850 89.92857 L107.05564 90.03571 "/>
<path d="M107.05564 90.03571 L107.09136 90.10714 "/>
<path d="M107.09136 90.10714 L107.09136 90.17857 "/>
<path d="M106.91278 90.14286 L106.94850 90.21428 "/>
<path d="M106.94850 90.21428 L107.01993 90.28571 "/>
<path d="M107.01993 90.28571 L107.16278 90.32143 "/>
<path d="M107.16278 90.32143 L107.41278 90.32143 "/>
<path d="M107.41278 90.32143 L107.55564 90.28571 "/>
<path d="M107.55564 90.28571 L107.62707 90.21428 "/>
<path d="M107.62707 90.21428 L107.66278 90.14286 "/>
<path d="M107.66278 90.14286 L107.66278 90.00000 "/>
<path d="M107.66278 90.00000 L107.62707 89.92857 "/>
<path d="M107.62707 89.92857 L107.55564 89.85714 "/>
<path d="M107.55564 89.85714 L107.41278 89.82143 "/>
<path d="M107.41278 89.82143 L107.16278 89.82143 "/>
<path d="M107.16278 89.82143 L107.01993 89.85714 "/>
<path d="M107.01993 89.85714 L106.94850 89.92857 "/>
<path d="M106.94850 89.92857 L106.91278 90.00000 "/>
<path d="M106.91278 90.00000 L106.91278 90.14286 "/>
<path d="M107.12707 89.53571 L107.12707 89.17857 "/>
<path d="M106.91278 89.60714 L107.66278 89.35714 "/>
<path d="M107.66278 89.35714 L106.91278 89.10714 "/>
</g><g transform="rotate(90.000000 109.75000 89.75000)">
<text x="109.75000" y="90.12500" transform="scale(-1 1) translate(-219.500000 0)" textLength="1.94821" font-size="1.00000" lengthAdjust="spacingAndGlyphs" text-anchor="middle" opacity="0">QB</text>
</g>
<g class="stroked-text"><desc>QB</desc>
<path d="M109.34136 89.83928 L109.37707 89.91071 "/>
<path d="M109.37707 89.91071 L109.44850 89.98214 "/>
<path d="M109.44850 89.98214 L109.55564 90.08928 "/>
<path d="M109.55564 90.08928 L109.59136 90.16071 "/>
<path d="M109.59136 90.16071 L109.59136 90.23214 "/>
<path d="M109.41278 90.19643 L109.44850 90.26786 "/>
<path d="M109.44850 90.26786 L109.51993 90.33928 "/>
<path d="M109.51993 90.33928 L109.66278 90.37500 "/>
<path d="M109.66278 90.37500 L109.91278 90.37500 "/>
<path d="M109.91278 90.37500 L110.05564 90.33928 "/>
<path d="M110.05564 90.33928 L110.12707 90.26786 "/>
<path d="M110.12707 90.26786 L110.16278 90.19643 "/>
<path d="M110.16278 90.19643 L110.16278 90.05357 "/>
<path d="M110.16278 90.05357 L110.12707 89.98214 "/>
<path d="M110.12707 89.98214 L110.05564 89.91071 "/>
<path d="M110.05564 89.91071 L109.91278 89.87500 "/>
<path d="M109.91278 89.87500 L109.66278 89.87500 "/>
<path d="M109.66278 89.87500 L109.51993 89.91071 "/>
<path d="M109.51993 89.91071 L109.44850 89.98214 "/>
<path d="M109.44850 89.98214 L109.41278 90.05357 "/>
<path d="M109.41278 90.05357 L109.41278 90.19643 "/>
<path d="M109.80564 89.30357 L109.76993 89.19643 "/>
<path d="M109.76993 89.19643 L109.73421 89.16071 "/>
<path d="M109.73421 89.16071 L109.66278 89.12500 "/>
<path d="M109.66278 89.12500 L109.55564 89.12500 "/>
<path d="M109.55564 89.12500 L109.48421 89.16071 "/>
<path d="M109.48421 89.16071 L109.44850 89.19643 "/>
<path d="M109.44850 89.19643 L109.41278 89.26786 "/>
<path d="M109.41278 89.26786 L109.41278 89.55357 "/>
<path d="M109.41278 89.55357 L110.16278 89.55357 "/>
<path d="M110.16278 89.55357 L110.16278 89.30357 "/>
<path d="M110.16278 89.30357 L110.12707 89.23214 "/>
<path d="M110.12707 89.23214 L110.09136 89.19643 "/>
<path d="M110.09136 89.19643 L110.01993 89.16071 "/>
<path d="M110.01993 89.16071 L109.94850 89.16071 "/>
<path d="M109.94850 89.16071 L109.87707 89.19643 "/>
<path d="M109.87707 89.19643 L109.84136 89.23214 "/>
<path d="M109.84136 89.23214 L109.80564 89.30357 "/>
<path d="M109.80564 89.30357 L109.80564 89.55357 "/>
</g></g>
<g style="fill-opacity: 0.0;stroke-width: 0.12500;stroke-opacity: 1;stroke-linecap: round;stroke-linejoin: round">
<text x="114.57500" y="106.12500" transform="scale(-1 1) translate(-229.150000 0)" textLength="1.13214" font-size="0.66667" lengthAdjust="spacingAndGlyphs" text-anchor="middle" opacity="0">J2</text>
<g class="stroked-text"><desc>J2</desc>
<path d="M114.74167 105.59981 L114.74167 105.95695 "/>
<path d="M114.74167 105.95695 L114.76547 106.02838 "/>
<path d="M114.76547 106.02838 L114.81309 106.07600 "/>
<path d="M114.81309 106.07600 L114.88452 106.09981 "/>
<path d="M114.88452 106.09981 L114.93214 106.09981 "/>
<path d="M114.52738 105.64743 L114.50357 105.62362 "/>
<path d="M114.50357 105.62362 L114.45595 105.59981 "/>
<path d="M114.45595 105.59981 L114.33690 105.59981 "/>
<path d="M114.33690 105.59981 L114.28928 105.62362 "/>
<path d="M114.28928 105.62362 L114.26548 105.64743 "/>
<path d="M114.26548 105.64743 L114.24167 105.69505 "/>
<path d="M114.24167 105.69505 L114.24167 105.74267 "/>
<path d="M114.24167 105.74267 L114.26548 105.81409 "/>
<path d="M114.26548 105.81409 L114.55119 106.09981 "/>
<path d="M114.55119 106.09981 L114.24167 106.09981 "/>
</g></g>
<g style="fill-opacity: 0.0;stroke-width: 0.12000;stroke-opacity: 1;stroke-linecap: round;stroke-linejoin: round">
<path d="M119.06500 101.87000 L119.06500 102.69247 "/>
<path d="M111.52000 101.87000 L110.06000 101.87000 "/>
<path d="M111.51000 101.87000 L119.06500 101.87000 "/>
<path d="M119.06500 103.30753 L119.06500 103.96247 "/>
<path d="M110.05500 103.76000 L110.05500 103.96247 "/>
<path d="M119.06500 104.57753 L119.06500 102.69247 "/>
<path d="M119.06500 104.57753 L119.06500 105.40000 "/>
<path d="M110.05500 104.57753 L110.06000 101.87000 "/>
<path d="M110.05500 104.57753 L110.05500 105.40000 "/>
<path d="M110.05500 105.40000 L119.06500 105.40000 "/>
</g> 
</g><g id="substrate-outline" style="fill:#000000; stroke:#000000; stroke-width: 0.15"><g style="fill-opacity: 0.0;stroke-opacity: 1;stroke-linecap: round;stroke-linejoin: round">
<path d="M129.46400 93.65000 L125.90600 93.65000 "/>
<path d="M129.46000 112.57300 L100.00000 112.57300 "/>
<path d="M103.55600 100.00000 L103.55600 93.65000 "/>
<path d="M129.46000 100.00000 L129.46000 112.57300 "/>
<path d="M100.00000 87.84400 L129.46400 87.84400 "/>
<path d="M103.55600 93.65000 L100.00000 93.65000 "/>
<path d="M100.00000 112.57300 L100.00000 100.00000 "/>
<path d="M100.00000 100.00000 L103.55600 100.00000 "/>
<path d="M129.46400 87.84400 L129.46400 93.65000 "/>
<path d="M125.90600 100.00000 L129.46000 100.00000 "/>
<path d="M125.90600 93.65000 L125.90600 100.00000 "/>
<path d="M100.00000 93.65000 L100.00000 87.84400 "/>
</g> 
<path d="M -0.5 0.0 A 0.5 0.5 0 1 1 0.5 0.0 L 0.5 -0.0 A 0.5 0.5 0 1 1 -0.5 -0.0 Z" transform="translate(122.5 92.25) rotate(-270.0)"/><path d="M -0.5 0.0 A 0.5 0.5 0 1 1 0.5 0.0 L 0.5 -0.0 A 0.5 0.5 0 1 1 -0.5 -0.0 Z" transform="translate(119.96 92.25) rotate(-270.0)"/><path d="M -0.5 0.0 A 0.5 0.5 0 1 1 0.5 0.0 L 0.5 -0.0 A 0.5 0.5 0 1 1 -0.5 -0.0 Z" transform="translate(117.42 92.25) rotate(-270.0)"/><path d="M -0.5 0.0 A 0.5 0.5 0 1 1 0.5 0.0 L 0.5 -0.0 A 0.5 0.5 0 1 1 -0.5 -0.0 Z" transform="translate(114.88 92.25) rotate(-270.0)"/><path d="M -0.5 0.0 A 0.5 0.5 0 1 1 0.5 0.0 L 0.5 -0.0 A 0.5 0.5 0 1 1 -0.5 -0.0 Z" transform="translate(112.34 92.25) rotate(-270.0)"/><path d="M -0.5 0.0 A 0.5 0.5 0 1 1 0.5 0.0 L 0.5 -0.0 A 0.5 0.5 0 1 1 -0.5 -0.0 Z" transform="translate(109.8 92.25) rotate(-270.0)"/><path d="M -0.5 0.0 A 0.5 0.5 0 1 1 0.5 0.0 L 0.5 -0.0 A 0.5 0.5 0 1 1 -0.5 -0.0 Z" transform="translate(107.26 92.25) rotate(-270.0)"/><path d="M -0.325 0.0 A 0.325 0.325 0 1 1 0.325 0.0 L 0.325 -0.0 A 0.325 0.325 0 1 1 -0.325 -0.0 Z" transform="translate(117.05 108.875) rotate(-270.0)"/><path d="M -0.325 0.0 A 0.325 0.325 0 1 1 0.325 0.0 L 0.325 -0.0 A 0.325 0.325 0 1 1 -0.325 -0.0 Z" transform="translate(117.05 110.145) rotate(-270.0)"/><path d="M -0.325 0.0 A 0.325 0.325 0 1 1 0.325 0.0 L 0.325 -0.0 A 0.325 0.325 0 1 1 -0.325 -0.0 Z" transform="translate(115.78 108.875) rotate(-270.0)"/><path d="M -0.325 0.0 A 0.325 0.325 0 1 1 0.325 0.0 L 0.325 -0.0 A 0.325 0.325 0 1 1 -0.325 -0.0 Z" transform="translate(115.78 110.145) rotate(-270.0)"/><path d="M -0.325 0.0 A 0.325 0.325 0 1 1 0.325 0.0 L 0.325 -0.0 A 0.325 0.325 0 1 1 -0.325 -0.0 Z" transform="translate(114.51 108.875) rotate(-270.0)"/><path d="M -0.325 0.0 A 0.325 0.325 0 1 1 0.325 0.0 L 0.325 -0.0 A 0.325 0.325 0 1 1 -0.325 -0.0 Z" transform="translate(114.51 110.145) rotate(-270.0)"/><path d="M -0.325 0.0 A 0.325 0.325 0 1 1 0.325 0.0 L 0.325 -0.0 A 0.325 0.325 0 1 1 -0.325 -0.0 Z" transform="translate(113.24 108.875) rotate(-270.0)"/><path d="M -0.325 0.0 A 0.325 0.325 0 1 1 0.325 0.0 L 0.325 -0.0 A 0.325 0.325 0 1 1 -0.325 -0.0 Z" transform="translate(113.24 110.145) rotate(-270.0)"/><path d="M -0.325 0.0 A 0.325 0.325 0 1 1 0.325 0.0 L 0.325 -0.0 A 0.325 0.325 0 1 1 -0.325 -0.0 Z" transform="translate(111.97 108.875) rotate(-270.0)"/><path d="M -0.325 0.0 A 0.325 0.325 0 1 1 0.325 0.0 L 0.325 -0.0 A 0.325 0.325 0 1 1 -0.325 -0.0 Z" transform="translate(111.97 110.145) rotate(-270.0)"/><path d="M -0.325 0.0 A 0.325 0.325 0 1 1 0.325 0.0 L 0.325 -0.0 A 0.325 0.325 0 1 1 -0.325 -0.0 Z" transform="translate(110.75 103.0) rotate(-270.0)"/><path d="M -0.325 0.0 A 0.325 0.325 0 1 1 0.325 0.0 L 0.325 -0.0 A 0.325 0.325 0 1 1 -0.325 -0.0 Z" transform="translate(110.75 104.27) rotate(-270.0)"/><path d="M -0.325 0.0 A 0.325 0.325 0 1 1 0.325 0.0 L 0.325 -0.0 A 0.325 0.325 0 1 1 -0.325 -0.0 Z" transform="translate(112.02 103.0) rotate(-270.0)"/><path d="M -0.325 0.0 A 0.325 0.325 0 1 1 0.325 0.0 L 0.325 -0.0 A 0.325 0.325 0 1 1 -0.325 -0.0 Z" transform="translate(112.02 104.27) rotate(-270.0)"/><path d="M -0.325 0.0 A 0.325 0.325 0 1 1 0.325 0.0 L 0.325 -0.0 A 0.325 0.325 0 1 1 -0.325 -0.0 Z" transform="translate(113.29 103.0) rotate(-270.0)"/><path d="M -0.325 0.0 A 0.325 0.325 0 1 1 0.325 0.0 L 0.325 -0.0 A 0.325 0.325 0 1 1 -0.325 -0.0 Z" transform="translate(113.29 104.27) rotate(-270.0)"/><path d="M -0.325 0.0 A 0.325 0.325 0 1 1 0.325 0.0 L 0.325 -0.0 A 0.325 0.325 0 1 1 -0.325 -0.0 Z" transform="translate(114.56 103.0) rotate(-270.0)"/><path d="M -0.325 0.0 A 0.325 0.325 0 1 1 0.325 0.0 L 0.325 -0.0 A 0.325 0.325 0 1 1 -0.325 -0.0 Z" transform="translate(114.56 104.27) rotate(-270.0)"/><path d="M -0.325 0.0 A 0.325 0.325 0 1 1 0.325 0.0 L 0.325 -0.0 A 0.325 0.325 0 1 1 -0.325 -0.0 Z" transform="translate(115.83 103.0) rotate(-270.0)"/><path d="M -0.325 0.0 A 0.325 0.325 0 1 1 0.325 0.0 L 0.325 -0.0 A 0.325 0.325 0 1 1 -0.325 -0.0 Z" transform="translate(115.83 104.27) rotate(-270.0)"/><path d="M -0.325 0.0 A 0.325 0.325 0 1 1 0.325 0.0 L 0.325 -0.0 A 0.325 0.325 0 1 1 -0.325 -0.0 Z" transform="translate(117.1 103.0) rotate(-270.0)"/><path d="M -0.325 0.0 A 0.325 0.325 0 1 1 0.325 0.0 L 0.325 -0.0 A 0.325 0.325 0 1 1 -0.325 -0.0 Z" transform="translate(117.1 104.27) rotate(-270.0)"/><path d="M -0.325 0.0 A 0.325 0.325 0 1 1 0.325 0.0 L 0.325 -0.0 A 0.325 0.325 0 1 1 -0.325 -0.0 Z" transform="translate(118.37 103.0) rotate(-270.0)"/><path d="M -0.325 0.0 A 0.325 0.325 0 1 1 0.325 0.0 L 0.325 -0.0 A 0.325 0.325 0 1 1 -0.325 -0.0 Z" transform="translate(118.37 104.27) rotate(-270.0)"/><path d="M -0.2 0.0 A 0.2 0.2 0 1 1 0.2 0.0 L 0.2 -0.0 A 0.2 0.2 0 1 1 -0.2 -0.0 Z" transform="translate(117.75 101.25) rotate(-0.0)"/><path d="M -0.2 0.0 A 0.2 0.2 0 1 1 0.2 0.0 L 0.2 -0.0 A 0.2 0.2 0 1 1 -0.2 -0.0 Z" transform="translate(109.0 110.0) rotate(-0.0)"/><path d="M -0.2 0.0 A 0.2 0.2 0 1 1 0.2 0.0 L 0.2 -0.0 A 0.2 0.2 0 1 1 -0.2 -0.0 Z" transform="translate(114.5 105.8195) rotate(-0.0)"/><path d="M -0.2 0.0 A 0.2 0.2 0 1 1 0.2 0.0 L 0.2 -0.0 A 0.2 0.2 0 1 1 -0.2 -0.0 Z" transform="translate(109.0 102.75) rotate(-0.0)"/><path d="M -0.2 0.0 A 0.2 0.2 0 1 1 0.2 0.0 L 0.2 -0.0 A 0.2 0.2 0 1 1 -0.2 -0.0 Z" transform="translate(108.75 105.0) rotate(-0.0)"/><path d="M -0.2 0.0 A 0.2 0.2 0 1 1 0.2 0.0 L 0.2 -0.0 A 0.2 0.2 0 1 1 -0.2 -0.0 Z" transform="translate(115.348009 101.250531) rotate(-0.0)"/></g></g></g></svg>